<svg width="71" height="71" viewBox="0 0 71 71" fill="none" xmlns="http://www.w3.org/2000/svg">
<path d="M35.5 0C55.1061 0 71 15.8939 71 35.5C71 55.1061 55.1061 71 35.5 71C15.8939 71 0 55.1061 0 35.5C0 15.8939 15.8939 0 35.5 0ZM35.5 2C16.9985 2 2 16.9985 2 35.5C2 54.0015 16.9985 69 35.5 69C54.0015 69 69 54.0015 69 35.5C69 16.9985 54.0015 2 35.5 2ZM44.4316 50.8477L43.7119 52H38.7676L36.5117 44.7041H22.832L20.5283 52H15.6797L14.9121 50.8477L25.1357 18.8799H34.2559L44.4316 50.8477ZM24.4639 39.376H34.9277L30.1279 24.208H29.2158L24.4639 39.376ZM52.3203 29.7803H55.2002V32H46.6797V29.7803H49.8799V20.4199H47.2598V19.1201L48.4404 18.2002H52.3203V29.7803Z" fill="#1219A4" fill-opacity="0.75"/>
</svg>
