<svg width="1638" height="919" viewBox="0 0 1638 919" fill="none" xmlns="http://www.w3.org/2000/svg">
<path style="mix-blend-mode:luminosity" fill-rule="evenodd" clip-rule="evenodd" d="M153 97H513C513.369 97 513.554 97.4462 513.293 97.7072C513.131 97.8689 513.131 98.1312 513.293 98.293L1204 789L1227.79 812.787L1279 864H1206.57H1204H921.225C913.092 864 905.308 867.302 899.656 873.149L864.178 909.851C858.525 915.698 850.741 919 842.608 919H113C96.4314 919 83 905.569 83 889V197V127V97H113H153ZM1356.33 919H1608C1624.57 919 1638 905.569 1638 889V560V490.5V460H1602.52C1588.57 457.423 1578 445.196 1578 430.5V191.225C1578 183.092 1581.3 175.308 1587.15 169.656L1628.85 129.344C1634.7 123.692 1638 115.908 1638 107.775V30C1638 13.4315 1624.57 0 1608 0H1194.4C1185.56 0 1177.18 3.89321 1171.48 10.6416L1107.52 86.3584C1101.82 93.1068 1093.44 97 1084.6 97H914.014C913.675 97 913.337 97.0057 913 97.0171V247.081L917.435 260.565L929.398 264.5H1038.5V268.5H932.439L917.435 273.435L913 286.919V488.101L1335.11 910.213C1340.74 915.839 1348.37 919 1356.33 919ZM889.561 268.5L904.565 273.435L909 286.919V484.101L729.396 304.496C719.624 294.724 718.021 279.923 724.495 268.5H889.561ZM909 247.081L904.565 260.565L892.602 264.5H727.212C728.025 263.491 728.912 262.523 729.874 261.603L893.279 105.32C897.639 101.149 903.125 98.4177 909 97.4219V247.081ZM19.5475 105.222C8.75172 105.222 0 113.974 0 124.77V126.106C0 143.028 20.4593 151.502 32.425 139.537L43.3809 128.581C44.7478 127.214 46.9638 127.214 48.3307 128.581C49.6975 129.948 49.6975 132.164 48.3307 133.53L2.67514 179.186C0.962277 180.899 0 183.222 0 185.644C0 190.689 4.08919 194.778 9.13347 194.778H24.6627C31.2036 194.778 37.4767 192.179 42.1018 187.554L59.2799 170.376C61.0216 168.634 62 166.272 62 163.809C62 155.536 51.9967 151.392 46.1464 157.243L17.9749 185.414C16.608 186.781 14.392 186.781 13.0251 185.414C11.6583 184.047 11.6583 181.831 13.0251 180.464L56.5599 136.93C60.0431 133.446 62 128.722 62 123.796C62 113.538 53.6843 105.222 43.4263 105.222H19.5475ZM53.3889 186.167C50.2112 189.344 52.4618 194.778 56.9557 194.778C59.7416 194.778 62 192.519 62 189.734C62 185.24 56.5666 182.989 53.3889 186.167ZM27.5556 127.611C32.3113 127.611 36.1667 123.756 36.1667 119C36.1667 114.244 32.3113 110.389 27.5556 110.389C22.7998 110.389 18.9444 114.244 18.9444 119C18.9444 123.756 22.7998 127.611 27.5556 127.611ZM675.187 199.813L669 181L662.813 199.813L644 206L662.813 212.187L669 231L675.187 212.187L694 206L675.187 199.813ZM699 224L701.475 231.525L709 234L701.475 236.475L699 244L696.525 236.475L689 234L696.525 231.525L699 224Z" fill="#EBF1FF" fill-opacity="0.9"/>
</svg>
