<svg width="689" height="114" viewBox="0 0 689 114" fill="none" xmlns="http://www.w3.org/2000/svg">
<path fill-rule="evenodd" clip-rule="evenodd" d="M689 9C689 13.9706 684.971 18 680 18C675.029 18 671 13.9706 671 9C671 4.02944 675.029 0 680 0C684.971 0 689 4.02944 689 9ZM490.336 35.6639L486.5 24L482.664 35.6639L471 39.5L482.664 43.3361L486.5 55L490.336 43.3361L502 39.5L490.336 35.6639ZM487.861 38.1388L486.5 34L485.139 38.1388L481 39.5L485.139 40.8612L486.5 45L487.861 40.8612L492 39.5L487.861 38.1388ZM47.3281 61.5742C47.7969 62.7852 48.0312 64.1523 48.0312 65.6758C48.0312 67.5898 47.543 69.3086 46.5664 70.832C45.6289 72.3555 44.1641 73.5469 42.1719 74.4062C40.2188 75.2656 37.7188 75.6953 34.6719 75.6953C32.1719 75.6953 29.8672 75.4414 27.7578 74.9336C25.6875 74.4258 23.8906 73.6055 22.3672 72.4727C20.8828 71.3398 19.7305 69.8555 18.9102 68.0195C18.0898 66.1836 17.6797 63.9375 17.6797 61.2812H0.0429688C0.0429688 66.0859 1.03906 70.2461 3.03125 73.7617C5.02344 77.2773 7.67969 80.168 11 82.4336C14.3594 84.6992 18.0898 86.3984 22.1914 87.5312C26.293 88.625 30.4531 89.1719 34.6719 89.1719C39.3594 89.1719 43.5977 88.6445 47.3867 87.5898C51.1758 86.5352 54.4375 84.9922 57.1719 82.9609C59.9062 80.9297 61.9961 78.4492 63.4414 75.5195C64.8867 72.5898 65.6094 69.2695 65.6094 65.5586C65.6094 62.043 65.0039 58.8984 63.793 56.125C62.582 53.3516 60.7852 50.8711 58.4023 48.6836C56.0195 46.4961 53.0508 44.5234 49.4961 42.7656C45.9805 41.0078 41.8984 39.4258 37.25 38.0195C34.4766 37.1602 32.0352 36.2812 29.9258 35.3828C27.8164 34.4844 26.0391 33.5273 24.5938 32.5117C23.1484 31.4961 22.0547 30.4023 21.3125 29.2305C20.6094 28.0586 20.2578 26.75 20.2578 25.3047C20.2578 23.3906 20.7656 21.6719 21.7812 20.1484C22.7969 18.5859 24.3203 17.3555 26.3516 16.457C28.3828 15.5195 30.9219 15.0508 33.9688 15.0508C37.1328 15.0508 39.75 15.5977 41.8203 16.6914C43.9297 17.7852 45.4922 19.2891 46.5078 21.2031C47.5625 23.0781 48.0898 25.2656 48.0898 27.7656H65.5508C65.5508 22.6875 64.2422 18.1758 61.625 14.2305C59.0469 10.2852 55.4141 7.17969 50.7266 4.91406C46.0391 2.64844 40.5508 1.51562 34.2617 1.51562C29.6523 1.51562 25.4141 2.08203 21.5469 3.21484C17.7188 4.34766 14.3984 5.96875 11.5859 8.07812C8.77344 10.1484 6.58594 12.6484 5.02344 15.5781C3.46094 18.4688 2.67969 21.6914 2.67969 25.2461C2.67969 28.918 3.42188 32.1406 4.90625 34.9141C6.42969 37.6875 8.5 40.1289 11.1172 42.2383C13.7734 44.3086 16.8203 46.125 20.2578 47.6875C23.7344 49.25 27.4062 50.6562 31.2734 51.9062C34.75 53 37.582 54.0547 39.7695 55.0703C41.957 56.0859 43.6562 57.1211 44.8672 58.1758C46.0781 59.1914 46.8984 60.3242 47.3281 61.5742ZM102.998 82.0473C102.399 82.7411 101.746 83.4168 101.037 84.0742C99.3969 85.5586 97.4242 86.7891 95.1195 87.7656C92.8148 88.7031 90.0805 89.1719 86.9164 89.1719C82.893 89.1719 79.2406 88.3711 75.9594 86.7695C72.7172 85.1289 70.1391 82.8828 68.225 80.0312C66.35 77.1406 65.4125 73.8594 65.4125 70.1875C65.4125 66.8672 66.0375 63.918 67.2875 61.3398C68.5375 58.7617 70.3734 56.5938 72.7953 54.8359C75.2562 53.0391 78.3227 51.6914 81.9945 50.793C85.6664 49.8555 89.9242 49.3867 94.768 49.3867H102.327V45.4609C102.327 43.4297 101.995 41.6914 101.33 40.2461C100.666 38.7617 99.6312 37.6094 98.225 36.7891C96.8578 35.9688 95.0805 35.5586 92.893 35.5586C91.018 35.5586 89.3969 35.8906 88.0297 36.5547C86.6625 37.1797 85.6078 38.0977 84.8656 39.3086C84.1234 40.4805 83.7523 41.8672 83.7523 43.4688H66.8773C66.8773 40.7734 67.5023 38.2148 68.7523 35.793C70.0023 33.3711 71.8187 31.2422 74.2016 29.4062C76.5844 27.5312 79.4164 26.0664 82.6977 25.0117C86.018 23.957 89.7289 23.4297 93.8305 23.4297C98.7523 23.4297 103.127 24.25 106.955 25.8906C110.784 27.5312 113.791 29.9922 115.979 33.2734C118.205 36.5547 119.319 40.6562 119.319 45.5781V72.707C119.319 76.1836 119.534 79.0352 119.963 81.2617C120.393 83.4492 121.018 85.3633 121.838 87.0039V88H104.787C104.02 86.3919 103.423 84.4077 102.998 82.0473ZM102.327 70.0812C102.112 70.4817 101.858 70.8882 101.565 71.3008C100.549 72.7852 99.1039 74.0352 97.2289 75.0508C95.3539 76.0664 93.1469 76.5742 90.6078 76.5742C88.9281 76.5742 87.4633 76.2617 86.2133 75.6367C84.9633 74.9727 84.0062 74.0742 83.3422 72.9414C82.6781 71.7695 82.3461 70.4609 82.3461 69.0156C82.3461 67.5703 82.5805 66.2422 83.0492 65.0312C83.557 63.8203 84.3383 62.7656 85.393 61.8672C86.4477 60.9297 87.7953 60.207 89.4359 59.6992C91.0766 59.1914 93.0102 58.9375 95.2367 58.9375H102.327V70.0812ZM139.986 32.1812C140.1 32.0358 140.216 31.8921 140.333 31.75C142.52 29.0547 145.118 27.0039 148.126 25.5977C151.173 24.1523 154.571 23.4297 158.321 23.4297C161.29 23.4297 164.005 23.8594 166.466 24.7188C168.927 25.5781 171.036 26.9453 172.794 28.8203C174.591 30.6953 175.958 33.1758 176.895 36.2617C177.872 39.3477 178.36 43.1172 178.36 47.5703V88H161.368V47.5117C161.368 44.6992 160.977 42.5117 160.196 40.9492C159.415 39.3867 158.262 38.293 156.739 37.668C155.255 37.0039 153.419 36.6719 151.231 36.6719C148.966 36.6719 146.993 37.1211 145.313 38.0195C143.673 38.918 142.305 40.168 141.212 41.7695C140.941 42.1705 140.687 42.5894 140.45 43.0263V88H123.575V24.6016H139.395L139.986 32.1812ZM214.491 74.8164C212.89 75.5977 211.054 75.9883 208.984 75.9883C206.484 75.9883 204.452 75.4805 202.89 74.4648C201.327 73.4492 200.097 72.0625 199.198 70.3047C198.339 68.5469 197.753 66.5352 197.441 64.2695C197.128 62.0039 196.972 59.6406 196.972 57.1797V55.4805C196.972 53.0195 197.128 50.6758 197.441 48.4492C197.792 46.1836 198.398 44.1719 199.257 42.4141C200.116 40.6172 201.327 39.2109 202.89 38.1953C204.452 37.1406 206.464 36.6133 208.925 36.6133C211.23 36.6133 213.163 37.1406 214.726 38.1953C216.327 39.2109 217.538 40.5781 218.359 42.2969C219.218 44.0156 219.667 45.9297 219.706 48.0391H235.585C235.552 43.7053 234.695 39.8772 233.014 36.5547H240.252V70.5977C240.252 75.0508 240.994 78.6445 242.478 81.3789C243.962 84.1133 246.072 86.1055 248.806 87.3555C251.58 88.5664 254.822 89.1719 258.533 89.1719C260.564 89.1719 262.42 89.0352 264.099 88.7617C265.779 88.4883 267.341 88.1172 268.787 87.6484L268.728 75.2266C268.142 75.3438 267.42 75.4609 266.56 75.5781C265.74 75.6562 264.802 75.6953 263.748 75.6953C262.263 75.6953 261.033 75.5195 260.056 75.168C259.08 74.7773 258.337 74.0938 257.83 73.1172C257.361 72.1406 257.127 70.7344 257.127 68.8984V36.5547H268.025V24.6016H257.127V8.95703H240.252V24.6016H231.111V33.4204C228.993 30.4569 226.247 28.1228 222.87 26.418C218.964 24.4258 214.413 23.4297 209.218 23.4297C204.335 23.4297 200.077 24.25 196.445 25.8906C192.812 27.5312 189.784 29.8164 187.363 32.7461C184.941 35.6367 183.124 39.0352 181.913 42.9414C180.702 46.8086 180.097 50.9883 180.097 55.4805V57.1797C180.097 61.6328 180.702 65.8125 181.913 69.7188C183.124 73.5859 184.941 76.9844 187.363 79.9141C189.784 82.8047 192.812 85.0703 196.445 86.7109C200.116 88.3516 204.413 89.1719 209.335 89.1719C214.218 89.1719 218.632 88.1953 222.577 86.2422C226.523 84.25 229.667 81.5352 232.011 78.0977C234.355 74.6211 235.546 70.6562 235.585 66.2031H219.706C219.667 68.1953 219.179 69.9336 218.241 71.418C217.343 72.8633 216.093 73.9961 214.491 74.8164ZM307.298 81.4114C305.418 83.7629 303.101 85.6271 300.348 87.0039C297.379 88.4492 293.883 89.1719 289.859 89.1719C286.773 89.1719 283.922 88.7422 281.305 87.8828C278.727 86.9844 276.5 85.5977 274.625 83.7227C272.789 81.8086 271.344 79.3672 270.289 76.3984C269.273 73.3906 268.766 69.7773 268.766 65.5586V24.6016H285.641V65.6758C285.641 67.5508 285.855 69.1328 286.285 70.4219C286.754 71.7109 287.398 72.7656 288.219 73.5859C289.039 74.4062 289.996 74.9922 291.09 75.3438C292.223 75.6953 293.473 75.8711 294.84 75.8711C298.316 75.8711 301.051 75.168 303.043 73.7617C304.655 72.646 305.885 71.2106 306.734 69.4555V24.6016H323.609V88H307.73L307.298 81.4114ZM362.99 82.0473C362.391 82.7411 361.738 83.4168 361.03 84.0742C359.389 85.5586 357.416 86.7891 355.112 87.7656C352.807 88.7031 350.073 89.1719 346.909 89.1719C342.885 89.1719 339.233 88.3711 335.952 86.7695C332.709 85.1289 330.131 82.8828 328.217 80.0312C326.342 77.1406 325.405 73.8594 325.405 70.1875C325.405 66.8672 326.03 63.918 327.28 61.3398C328.53 58.7617 330.366 56.5938 332.788 54.8359C335.248 53.0391 338.315 51.6914 341.987 50.793C345.659 49.8555 349.916 49.3867 354.76 49.3867H362.319V45.4609C362.319 43.4297 361.987 41.6914 361.323 40.2461C360.659 38.7617 359.623 37.6094 358.217 36.7891C356.85 35.9688 355.073 35.5586 352.885 35.5586C351.01 35.5586 349.389 35.8906 348.022 36.5547C346.655 37.1797 345.6 38.0977 344.858 39.3086C344.116 40.4805 343.745 41.8672 343.745 43.4688H326.87C326.87 40.7734 327.495 38.2148 328.745 35.793C329.995 33.3711 331.811 31.2422 334.194 29.4062C336.577 27.5312 339.409 26.0664 342.69 25.0117C346.01 23.957 349.721 23.4297 353.823 23.4297C358.745 23.4297 363.12 24.25 366.948 25.8906C370.776 27.5312 373.784 29.9922 375.971 33.2734C378.198 36.5547 379.311 40.6562 379.311 45.5781V72.707C379.311 76.1836 379.526 79.0352 379.955 81.2617C380.385 83.4492 381.01 85.3633 381.83 87.0039V88H364.78C364.012 86.3919 363.416 84.4077 362.99 82.0473ZM362.319 70.0812C362.104 70.4817 361.85 70.8882 361.557 71.3008C360.541 72.7852 359.096 74.0352 357.221 75.0508C355.346 76.0664 353.139 76.5742 350.6 76.5742C348.92 76.5742 347.455 76.2617 346.205 75.6367C344.955 74.9727 343.998 74.0742 343.334 72.9414C342.67 71.7695 342.338 70.4609 342.338 69.0156C342.338 67.5703 342.573 66.2422 343.041 65.0312C343.549 63.8203 344.33 62.7656 345.385 61.8672C346.44 60.9297 347.788 60.207 349.428 59.6992C351.069 59.1914 353.002 58.9375 355.229 58.9375H362.319V70.0812ZM400.357 32.37C400.518 32.0799 400.683 31.7951 400.852 31.5156C402.454 28.9375 404.407 26.9453 406.712 25.5391C409.016 24.1328 411.653 23.4297 414.622 23.4297C415.559 23.4297 416.516 23.5078 417.493 23.6641C418.47 23.7812 419.27 23.957 419.895 24.1914L419.888 24.6016H432.296L444.236 64.4337L456.144 24.6016H474.249L448.761 97.5508C448.214 99.1523 447.472 100.871 446.534 102.707C445.636 104.543 444.405 106.281 442.843 107.922C441.32 109.602 439.386 110.969 437.042 112.023C434.737 113.078 431.905 113.605 428.546 113.605C426.945 113.605 425.636 113.508 424.62 113.312C423.605 113.117 422.394 112.844 420.987 112.492V100.129H422.335C422.804 100.168 423.253 100.188 423.683 100.188C425.909 100.188 427.726 99.9336 429.132 99.4258C430.538 98.918 431.671 98.1367 432.53 97.082C433.39 96.0664 434.073 94.7383 434.581 93.0977L436.479 88.2009L419.526 39.8251C418.72 39.7127 417.75 39.6187 416.614 39.543C415.481 39.4258 414.446 39.3672 413.509 39.3672C411.126 39.3672 409.055 39.6797 407.298 40.3047C405.579 40.8906 404.134 41.7695 402.962 42.9414C402.069 43.8645 401.347 44.9451 400.794 46.1833V88H383.919V24.6016H399.798L400.357 32.37ZM582.584 49.9141V40.7734C582.584 34.7969 581.803 29.4062 580.241 24.6016C578.678 19.7578 576.432 15.6172 573.502 12.1797C570.573 8.74219 567.077 6.10547 563.014 4.26953C558.952 2.43359 554.381 1.51562 549.303 1.51562C544.342 1.51562 539.83 2.43359 535.768 4.26953C531.705 6.10547 528.209 8.74219 525.28 12.1797C522.35 15.6172 520.084 19.7578 518.483 24.6016C516.92 29.4062 516.139 34.7969 516.139 40.7734V49.9141C516.139 55.8906 516.94 61.3008 518.541 66.1445C520.143 70.9492 522.409 75.0703 525.338 78.5078C528.268 81.9453 531.764 84.582 535.827 86.418C539.928 88.2539 544.459 89.1719 549.42 89.1719C554.498 89.1719 559.069 88.2539 563.131 86.418C567.194 84.582 570.67 81.9453 573.561 78.5078C576.491 75.0703 578.717 70.9492 580.241 66.1445C581.803 61.3008 582.584 55.8906 582.584 49.9141ZM575.436 40.6562V49.9141C575.436 54.9922 574.85 59.5625 573.678 63.625C572.545 67.6484 570.866 71.1055 568.639 73.9961C566.412 76.8477 563.698 79.0352 560.495 80.5586C557.291 82.082 553.6 82.8438 549.42 82.8438C545.397 82.8438 541.764 82.082 538.522 80.5586C535.319 79.0352 532.584 76.8477 530.319 73.9961C528.053 71.1055 526.315 67.6484 525.104 63.625C523.932 59.5625 523.346 54.9922 523.346 49.9141V40.6562C523.346 35.6172 523.932 31.0859 525.104 27.0625C526.315 23.0391 528.034 19.6016 530.26 16.75C532.526 13.8984 535.26 11.7109 538.463 10.1875C541.666 8.66406 545.28 7.90234 549.303 7.90234C553.444 7.90234 557.135 8.66406 560.377 10.1875C563.62 11.7109 566.354 13.8984 568.58 16.75C570.846 19.6016 572.545 23.0391 573.678 27.0625C574.85 31.0859 575.436 35.6172 575.436 40.6562ZM639.516 60.7539C640.298 62.5898 640.688 64.6797 640.688 67.0234C640.688 70.2266 639.77 73.0391 637.934 75.4609C636.138 77.8438 633.579 79.6992 630.259 81.0273C626.977 82.3555 623.091 83.0195 618.598 83.0195C615.669 83.0195 612.739 82.6875 609.809 82.0234C606.919 81.3203 604.263 80.207 601.841 78.6836C599.458 77.1602 597.544 75.168 596.098 72.707C594.653 70.2461 593.93 67.2188 593.93 63.625H586.782C586.782 68.1172 587.7 71.9844 589.536 75.2266C591.411 78.4688 593.891 81.125 596.977 83.1953C600.102 85.2266 603.54 86.7305 607.29 87.707C611.04 88.6836 614.809 89.1719 618.598 89.1719C622.817 89.1719 626.704 88.6641 630.259 87.6484C633.852 86.6328 636.958 85.168 639.575 83.2539C642.231 81.3398 644.282 79.0156 645.727 76.2812C647.212 73.5078 647.954 70.3828 647.954 66.9062C647.954 63.4297 647.329 60.3828 646.079 57.7656C644.829 55.1484 642.993 52.8633 640.571 50.9102C638.149 48.918 635.18 47.1602 631.665 45.6367C628.149 44.1133 624.126 42.7266 619.595 41.4766C615.298 40.3438 611.684 39.1523 608.755 37.9023C605.825 36.6133 603.462 35.2461 601.665 33.8008C599.907 32.3164 598.638 30.7344 597.856 29.0547C597.075 27.3359 596.684 25.4609 596.684 23.4297C596.684 20.5391 597.485 17.9219 599.087 15.5781C600.727 13.1953 603.13 11.3008 606.294 9.89453C609.497 8.44922 613.442 7.72656 618.13 7.72656C622.817 7.72656 626.782 8.56641 630.024 10.2461C633.305 11.8867 635.805 14.1719 637.524 17.1016C639.282 19.9922 640.161 23.293 640.161 27.0039H647.368C647.368 22.2383 646.157 17.9414 643.735 14.1133C641.352 10.2461 637.973 7.17969 633.598 4.91406C629.263 2.64844 624.106 1.51562 618.13 1.51562C613.95 1.51562 610.102 2.04297 606.587 3.09766C603.11 4.15234 600.083 5.65625 597.505 7.60938C594.966 9.5625 592.993 11.8867 591.587 14.582C590.18 17.2773 589.477 20.2656 589.477 23.5469C589.477 26.9062 590.122 29.8555 591.411 32.3945C592.7 34.8945 594.555 37.082 596.977 38.957C599.438 40.832 602.388 42.4922 605.825 43.9375C609.263 45.3828 613.11 46.7109 617.368 47.9219C621.821 49.1719 625.532 50.4414 628.501 51.7305C631.509 52.9805 633.891 54.3477 635.649 55.832C637.446 57.2773 638.735 58.918 639.516 60.7539Z" fill="#EBF1FF" fill-opacity="0.9" style="mix-blend-mode:luminosity"/>
</svg>
