<svg width="366" height="36" viewBox="0 0 366 36" fill="none" xmlns="http://www.w3.org/2000/svg">
<path d="M0 22L0 0.759999L2.16 0.759999L2.16 22H0ZM5.4 22L5.4 0.759999L6.48 0.759999L6.48 22H5.4ZM7.56 22L7.56 0.759999L10.8 0.759999L10.8 22H7.56ZM3.348 25.132H5.796C6.756 25.132 7.452 25.348 7.884 25.78C8.34 26.188 8.568 26.776 8.568 27.544C8.568 28.024 8.412 28.48 8.1 28.912C7.788 29.344 7.38 29.632 6.876 29.776L8.82 33.484H7.776L5.904 29.812H4.284L4.284 33.484H3.348L3.348 25.132ZM5.904 28.984C6.48 28.984 6.912 28.852 7.2 28.588C7.464 28.348 7.596 28 7.596 27.544C7.596 27.088 7.464 26.716 7.2 26.428C6.912 26.164 6.48 26.032 5.904 26.032H4.284V28.984H5.904ZM7.56281 22L7.56281 0.759999L8.64281 0.759999L8.64281 22H7.56281ZM9.72281 22L9.72281 0.759999L11.8828 0.759999L11.8828 22L9.72281 22ZM14.0428 22L14.0428 0.759999L15.1228 0.759999L15.1228 22H14.0428ZM13.7908 33.628C12.8788 33.628 12.1588 33.352 11.6308 32.8C11.0788 32.248 10.8028 31.468 10.8028 30.46C10.8028 29.788 10.9348 29.2 11.1988 28.696C11.4388 28.216 11.7748 27.856 12.2068 27.616C12.6148 27.352 13.0828 27.22 13.6108 27.22C14.3548 27.22 14.9548 27.46 15.4108 27.94C15.8668 28.444 16.0948 29.176 16.0948 30.136C16.0948 30.232 16.0948 30.376 16.0948 30.568H11.7388C11.7628 31.312 11.9668 31.876 12.3508 32.26C12.7348 32.644 13.2268 32.836 13.8268 32.836C14.4748 32.836 15.0028 32.608 15.4108 32.152L15.9508 32.692C15.4228 33.316 14.7028 33.628 13.7908 33.628ZM15.1228 29.812C15.1228 29.236 14.9788 28.78 14.6908 28.444C14.4028 28.108 14.0188 27.94 13.5388 27.94C13.1068 27.94 12.7228 28.096 12.3868 28.408C12.0508 28.72 11.8468 29.188 11.7748 29.812H15.1228ZM15.1256 22L15.1256 0.759999L16.2056 0.759999L16.2056 22H15.1256ZM20.5256 22L20.5256 0.759999L21.6056 0.759999L21.6056 22H20.5256ZM22.6856 22L22.6856 0.759999L24.8456 0.759999L24.8456 22H22.6856ZM21.5336 33.628C20.9336 33.628 20.4056 33.496 19.9496 33.232C19.4936 32.944 19.1336 32.56 18.8696 32.08C18.6056 31.6 18.4736 31.048 18.4736 30.424C18.4736 29.824 18.6056 29.284 18.8696 28.804C19.1336 28.324 19.4936 27.94 19.9496 27.652C20.4056 27.388 20.9336 27.256 21.5336 27.256C22.0136 27.256 22.4576 27.352 22.8656 27.544C23.2496 27.736 23.5736 28.012 23.8376 28.372L23.2256 28.984L23.1536 29.056L23.0816 28.984C23.0816 28.912 23.0576 28.84 23.0096 28.768C22.9856 28.72 22.9256 28.648 22.8296 28.552C22.6376 28.384 22.4336 28.264 22.2176 28.192C21.9776 28.096 21.7136 28.048 21.4256 28.048C21.0656 28.048 20.7416 28.144 20.4536 28.336C20.1416 28.528 19.9016 28.804 19.7336 29.164C19.5416 29.5 19.4456 29.896 19.4456 30.352C19.4456 30.808 19.5416 31.228 19.7336 31.612C19.9256 31.972 20.1776 32.248 20.4896 32.44C20.8256 32.656 21.1856 32.764 21.5696 32.764C22.1936 32.764 22.7336 32.512 23.1896 32.008L23.7296 32.656C23.1296 33.304 22.3976 33.628 21.5336 33.628ZM22.6884 22L22.6884 0.759999L23.7684 0.759999L23.7684 22H22.6884ZM25.9284 22L25.9284 0.759999L27.0084 0.759999L27.0084 22H25.9284ZM29.1684 22L29.1684 0.759999L33.4884 0.759999V22L29.1684 22ZM29.7804 27.22C30.4284 27.22 30.9684 27.448 31.4004 27.904L30.9684 28.624L30.9324 28.768L30.8244 28.696C30.8004 28.6 30.7764 28.528 30.7524 28.48C30.7044 28.408 30.6204 28.336 30.5004 28.264C30.2844 28.12 30.0204 28.048 29.7084 28.048C29.3964 28.048 29.0964 28.132 28.8084 28.3C28.5204 28.444 28.2924 28.684 28.1244 29.02C27.9324 29.356 27.8364 29.764 27.8364 30.244L27.8364 33.484H26.8644L26.8644 27.364H27.8724L27.8364 28.48C28.0044 28.096 28.2684 27.784 28.6284 27.544C28.9884 27.328 29.3724 27.22 29.7804 27.22ZM30.2512 22L30.2512 0.759999L31.3312 0.759999L31.3312 22H30.2512ZM32.4112 22V0.759999L34.5712 0.759999V22L32.4112 22ZM36.7312 22V0.759999L37.8112 0.759999V22H36.7312ZM36.4792 33.628C35.5672 33.628 34.8472 33.352 34.3192 32.8C33.7672 32.248 33.4912 31.468 33.4912 30.46C33.4912 29.788 33.6232 29.2 33.8872 28.696C34.1272 28.216 34.4632 27.856 34.8952 27.616C35.3032 27.352 35.7712 27.22 36.2992 27.22C37.0432 27.22 37.6432 27.46 38.0992 27.94C38.5552 28.444 38.7832 29.176 38.7832 30.136C38.7832 30.232 38.7832 30.376 38.7832 30.568H34.4272C34.4512 31.312 34.6552 31.876 35.0392 32.26C35.4232 32.644 35.9152 32.836 36.5152 32.836C37.1632 32.836 37.6912 32.608 38.0992 32.152L38.6392 32.692C38.1112 33.316 37.3912 33.628 36.4792 33.628ZM37.8112 29.812C37.8112 29.236 37.6672 28.78 37.3792 28.444C37.0912 28.108 36.7072 27.94 36.2272 27.94C35.7952 27.94 35.4112 28.096 35.0752 28.408C34.7392 28.72 34.5352 29.188 34.4632 29.812H37.8112ZM37.8141 22V0.759999L38.8941 0.759999V22H37.8141ZM41.0541 22V0.759999L42.1341 0.759999V22H41.0541ZM43.2141 22V0.759999L45.3741 0.759999V22H43.2141ZM43.6821 27.22C44.5461 27.22 45.2061 27.448 45.6621 27.904C46.1181 28.36 46.3461 29.14 46.3461 30.244V33.484H45.3021V32.548C44.9421 33.268 44.2461 33.628 43.2141 33.628C42.5421 33.628 42.0141 33.472 41.6301 33.16C41.2461 32.848 41.0541 32.44 41.0541 31.936C41.0541 31.504 41.1981 31.132 41.4861 30.82C41.7501 30.508 42.1221 30.256 42.6021 30.064C43.0581 29.896 43.5741 29.812 44.1501 29.812C44.6541 29.812 45.1101 29.836 45.5181 29.884C45.4701 29.212 45.2901 28.732 44.9781 28.444C44.6661 28.156 44.2101 28.012 43.6101 28.012C43.2981 28.012 43.0101 28.072 42.7461 28.192C42.4581 28.312 42.1941 28.48 41.9541 28.696L41.4861 28.084C42.0621 27.508 42.7941 27.22 43.6821 27.22ZM43.3221 32.908C43.9941 32.908 44.5221 32.704 44.9061 32.296C45.2901 31.912 45.4941 31.36 45.5181 30.64C45.1101 30.568 44.6781 30.532 44.2221 30.532C43.5501 30.532 43.0101 30.652 42.6021 30.892C42.2181 31.108 42.0261 31.444 42.0261 31.9C42.0261 32.572 42.4581 32.908 43.3221 32.908ZM45.3769 22V0.759999L46.4569 0.759999V22H45.3769ZM48.6169 22V0.759999L52.9369 0.759999V22H48.6169ZM54.0169 22V0.759999L55.0969 0.759999V22H54.0169ZM53.9089 32.908C53.3329 33.364 52.6849 33.592 51.9649 33.592C51.2929 33.592 50.8129 33.388 50.5249 32.98C50.2369 32.548 50.0929 31.876 50.0929 30.964C50.0929 30.796 50.1049 30.532 50.1289 30.172L50.2729 28.156H48.9049V27.364H50.3089L50.4169 25.744L51.4609 25.564H51.6049V25.636C51.5569 25.708 51.5209 25.78 51.4969 25.852C51.4489 25.924 51.4249 26.02 51.4249 26.14L51.2809 27.364H53.2969V28.156H51.2089L51.1009 30.244C51.0769 30.604 51.0649 30.832 51.0649 30.928C51.0649 31.648 51.1489 32.14 51.3169 32.404C51.4849 32.644 51.7489 32.764 52.1089 32.764C52.3729 32.764 52.6249 32.716 52.8649 32.62C53.0809 32.524 53.3329 32.368 53.6209 32.152L53.9089 32.908ZM52.9397 22V0.759999L54.0197 0.759999V22H52.9397ZM58.3397 22V0.759999L60.4997 0.759999V22H58.3397ZM61.5797 22V0.759999L62.6597 0.759999V22H61.5797ZM56.8637 32.692H58.4477V28.156H56.9357V27.364H59.3837V32.692H60.8237V33.484H56.8637V32.692ZM58.8797 26.068C58.6877 26.068 58.5197 26.008 58.3757 25.888C58.2557 25.744 58.1957 25.576 58.1957 25.384C58.1957 25.192 58.2557 25.036 58.3757 24.916C58.4957 24.772 58.6637 24.7 58.8797 24.7C59.0477 24.7 59.2037 24.772 59.3477 24.916C59.4917 25.06 59.5637 25.216 59.5637 25.384C59.5637 25.576 59.4917 25.744 59.3477 25.888C59.2037 26.008 59.0477 26.068 58.8797 26.068ZM60.5025 22V0.759999L61.5825 0.759999V22H60.5025ZM64.8225 22V0.759999L69.1425 0.759999V22H64.8225ZM70.2225 22V0.759999L71.3025 0.759999V22H70.2225ZM66.4425 33.592C65.8905 33.592 65.3985 33.46 64.9665 33.196C64.5585 32.932 64.2345 32.56 63.9945 32.08C63.7305 31.6 63.5985 31.048 63.5985 30.424C63.5985 29.8 63.7305 29.248 63.9945 28.768C64.2345 28.288 64.5585 27.916 64.9665 27.652C65.3985 27.364 65.8905 27.22 66.4425 27.22C66.9945 27.22 67.4745 27.364 67.8825 27.652C68.3145 27.916 68.6505 28.288 68.8905 28.768C69.1305 29.248 69.2505 29.8 69.2505 30.424C69.2505 31.048 69.1305 31.6 68.8905 32.08C68.6505 32.56 68.3145 32.932 67.8825 33.196C67.4745 33.46 66.9945 33.592 66.4425 33.592ZM66.4425 32.8C66.7785 32.8 67.0905 32.692 67.3785 32.476C67.6425 32.284 67.8585 32.008 68.0265 31.648C68.1705 31.264 68.2425 30.844 68.2425 30.388C68.2425 29.692 68.0745 29.128 67.7385 28.696C67.4025 28.264 66.9705 28.048 66.4425 28.048C65.9145 28.048 65.4825 28.264 65.1465 28.696C64.8105 29.128 64.6425 29.692 64.6425 30.388C64.6425 30.844 64.7145 31.264 64.8585 31.648C65.0265 32.008 65.2425 32.284 65.5065 32.476C65.7705 32.692 66.0825 32.8 66.4425 32.8ZM68.0653 22V0.759999L70.2253 0.759999V22H68.0653ZM74.5453 22V0.759999L75.6253 0.759999V22H74.5453ZM76.7053 22V0.759999L77.7853 0.759999V22L76.7053 22ZM71.6293 27.364H72.5653V28.444C72.8053 28.084 73.1053 27.784 73.4653 27.544C73.8253 27.328 74.2093 27.22 74.6173 27.22C75.1693 27.22 75.6133 27.424 75.9493 27.832C76.2613 28.264 76.4173 28.912 76.4173 29.776V33.484H75.4813V29.812C75.4813 29.188 75.3853 28.744 75.1933 28.48C74.9773 28.192 74.7013 28.048 74.3653 28.048C74.0773 28.048 73.8013 28.132 73.5373 28.3C73.2493 28.468 73.0093 28.696 72.8173 28.984C72.6493 29.272 72.5653 29.596 72.5653 29.956V33.484H71.6293V27.364ZM75.6281 22V0.759999L77.7881 0.759999V22L75.6281 22ZM78.8681 22V0.759999L81.0281 0.759999V22H78.8681ZM83.1881 22V0.759999L85.3481 0.759999V22H83.1881ZM83.1909 22V0.759999L84.2709 0.759999V22H83.1909ZM87.5109 22V0.759999L91.8309 0.759999V22H87.5109ZM92.9109 22V0.759999L93.9909 0.759999V22H92.9109ZM89.1309 33.592C88.5789 33.592 88.0869 33.46 87.6549 33.196C87.2469 32.932 86.9229 32.56 86.6829 32.08C86.4189 31.6 86.2869 31.048 86.2869 30.424C86.2869 29.8 86.4189 29.248 86.6829 28.768C86.9229 28.288 87.2469 27.916 87.6549 27.652C88.0869 27.364 88.5789 27.22 89.1309 27.22C89.6829 27.22 90.1629 27.364 90.5709 27.652C91.0029 27.916 91.3389 28.288 91.5789 28.768C91.8189 29.248 91.9389 29.8 91.9389 30.424C91.9389 31.048 91.8189 31.6 91.5789 32.08C91.3389 32.56 91.0029 32.932 90.5709 33.196C90.1629 33.46 89.6829 33.592 89.1309 33.592ZM89.1309 32.8C89.4669 32.8 89.7789 32.692 90.0669 32.476C90.3309 32.284 90.5469 32.008 90.7149 31.648C90.8589 31.264 90.9309 30.844 90.9309 30.388C90.9309 29.692 90.7629 29.128 90.4269 28.696C90.0909 28.264 89.6589 28.048 89.1309 28.048C88.6029 28.048 88.1709 28.264 87.8349 28.696C87.4989 29.128 87.3309 29.692 87.3309 30.388C87.3309 30.844 87.4029 31.264 87.5469 31.648C87.7149 32.008 87.9309 32.284 88.1949 32.476C88.4589 32.692 88.7709 32.8 89.1309 32.8ZM90.7537 22V0.759999L91.8337 0.759999V22H90.7537ZM92.9137 22V0.759999L95.0737 0.759999V22H92.9137ZM99.3937 22V0.759999L100.474 0.759999V22L99.3937 22ZM95.5057 28.12H94.1737V27.364H95.5057V26.86C95.5057 26.068 95.7097 25.48 96.1177 25.096C96.5257 24.712 97.0777 24.52 97.7737 24.52C98.1577 24.52 98.5177 24.58 98.8537 24.7C99.1897 24.844 99.4657 25.06 99.6817 25.348L99.1777 26.068L99.0697 26.176L98.9977 26.104C98.9977 26.08 98.9977 26.044 98.9977 25.996C98.9737 25.948 98.9497 25.888 98.9257 25.816C98.8777 25.744 98.8177 25.684 98.7457 25.636C98.6257 25.516 98.4937 25.42 98.3497 25.348C98.2057 25.3 98.0137 25.276 97.7737 25.276C97.3657 25.276 97.0417 25.408 96.8017 25.672C96.5617 25.912 96.4417 26.308 96.4417 26.86V27.364H98.4577V28.12H96.4417V33.484H95.5057V28.12ZM98.3166 22V0.759999L100.477 0.759999V22L98.3166 22ZM101.557 22V0.759999L103.717 0.759999V22H101.557ZM105.877 22V0.759999L108.037 0.759999V22H105.877ZM105.879 22V0.759999L106.959 0.759999V22H105.879ZM108.039 22V0.759999L110.199 0.759999V22H108.039ZM113.439 22V0.759999L114.519 0.759999V22H113.439ZM109.191 25.132H111.135C111.831 25.132 112.371 25.228 112.755 25.42C113.163 25.612 113.511 25.9 113.799 26.284C114.351 27.004 114.627 28.024 114.627 29.344C114.579 30.712 114.267 31.744 113.691 32.44C113.115 33.16 112.215 33.508 110.991 33.484L109.191 33.484V25.132ZM110.919 32.764C112.767 32.764 113.691 31.648 113.691 29.416C113.691 28.288 113.487 27.424 113.079 26.824C112.647 26.224 111.975 25.924 111.063 25.924H110.091V32.764L110.919 32.764ZM113.442 22V0.759999L115.602 0.759999V22H113.442ZM116.682 22V0.759999L118.842 0.759999V22H116.682ZM121.002 22V0.759999L123.162 0.759999V22L121.002 22ZM121.005 22V0.759999L123.165 0.759999V22L121.005 22ZM124.245 22V0.759999L127.485 0.759999V22H124.245ZM128.565 22V0.759999L131.805 0.759999V22H128.565ZM126.945 33.628C126.081 33.628 125.421 33.364 124.965 32.836C124.509 32.308 124.281 31.564 124.281 30.604V25.132H125.325V25.24C125.253 25.288 125.217 25.348 125.217 25.42C125.193 25.468 125.181 25.576 125.181 25.744V30.604C125.181 31.324 125.325 31.876 125.613 32.26C125.877 32.644 126.333 32.836 126.981 32.836C127.605 32.836 128.061 32.644 128.349 32.26C128.637 31.876 128.781 31.312 128.781 30.568V25.132H129.681V30.568C129.681 31.6 129.441 32.368 128.961 32.872C128.481 33.376 127.809 33.628 126.945 33.628ZM128.568 22V0.759999L130.728 0.759999V22H128.568ZM131.808 22V0.759999L133.968 0.759999V22H131.808ZM136.128 22V0.759999L138.288 0.759999V22H136.128ZM136.131 22V0.759999L138.291 0.759999V22H136.131ZM139.371 22V0.759999L142.611 0.759999V22H139.371ZM143.691 22V0.759999L144.771 0.759999V22H143.691ZM142.035 33.628C140.955 33.628 140.079 33.268 139.407 32.548L139.911 31.72L139.947 31.612L140.055 31.648C140.055 31.672 140.067 31.72 140.091 31.792C140.091 31.84 140.115 31.9 140.163 31.972C140.187 32.02 140.235 32.068 140.307 32.116C140.811 32.548 141.435 32.764 142.179 32.764C142.659 32.764 143.067 32.632 143.403 32.368C143.739 32.08 143.907 31.744 143.907 31.36C143.907 31.096 143.847 30.868 143.727 30.676C143.631 30.508 143.451 30.34 143.187 30.172C142.923 30.004 142.515 29.8 141.963 29.56C141.147 29.248 140.559 28.888 140.199 28.48C139.863 28.072 139.695 27.616 139.695 27.112C139.695 26.488 139.923 25.984 140.379 25.6C140.835 25.216 141.447 25.024 142.215 25.024C142.671 25.024 143.103 25.12 143.511 25.312C143.895 25.504 144.243 25.756 144.555 26.068L143.943 26.896L143.871 26.824C143.871 26.8 143.859 26.764 143.835 26.716C143.835 26.644 143.811 26.584 143.763 26.536C143.739 26.464 143.691 26.404 143.619 26.356C143.427 26.164 143.199 26.02 142.935 25.924C142.695 25.852 142.407 25.816 142.071 25.816C141.639 25.816 141.303 25.936 141.063 26.176C140.799 26.416 140.667 26.704 140.667 27.04C140.667 27.304 140.715 27.532 140.811 27.724C140.931 27.916 141.135 28.096 141.423 28.264C141.711 28.456 142.143 28.66 142.719 28.876C143.511 29.212 144.063 29.548 144.375 29.884C144.663 30.244 144.807 30.688 144.807 31.216C144.807 31.624 144.711 32.008 144.519 32.368C144.303 32.728 143.991 33.028 143.583 33.268C143.151 33.508 142.635 33.628 142.035 33.628ZM143.693 22V0.759999L145.853 0.759999V22H143.693ZM146.933 22V0.759999L149.093 0.759999V22H146.933ZM151.253 22V0.759999L153.413 0.759999V22H151.253ZM151.256 22V0.759999L153.416 0.759999V22H151.256ZM154.496 22V0.759999L155.576 0.759999V22H154.496ZM158.816 22V0.759999L162.056 0.759999V22H158.816ZM159.212 35.428C158.348 35.452 157.748 35.332 157.412 35.068C157.052 34.78 156.872 34.288 156.872 33.592C156.416 33.52 155.984 33.316 155.576 32.98C155.168 32.644 154.844 32.176 154.604 31.576C154.364 30.952 154.244 30.208 154.244 29.344C154.244 28.312 154.388 27.484 154.676 26.86C154.988 26.212 155.372 25.744 155.828 25.456C156.284 25.192 156.74 25.06 157.196 25.06C157.748 25.06 158.252 25.204 158.708 25.492C159.164 25.804 159.524 26.284 159.788 26.932C160.052 27.58 160.172 28.372 160.148 29.308C160.148 30.556 159.944 31.528 159.536 32.224C159.128 32.944 158.516 33.4 157.7 33.592C157.7 33.904 157.784 34.144 157.952 34.312C158.096 34.48 158.336 34.564 158.672 34.564L159.752 34.528V35.428H159.212ZM157.268 32.764C157.604 32.764 157.916 32.644 158.204 32.404C158.516 32.188 158.768 31.84 158.96 31.36C159.152 30.904 159.248 30.304 159.248 29.56C159.248 28.624 159.14 27.88 158.924 27.328C158.732 26.8 158.48 26.428 158.168 26.212C157.856 25.972 157.532 25.852 157.196 25.852C156.548 25.852 156.044 26.176 155.684 26.824C155.324 27.472 155.144 28.252 155.144 29.164C155.144 30.244 155.336 31.108 155.72 31.756C156.104 32.428 156.62 32.764 157.268 32.764ZM158.819 22V0.759999L160.979 0.759999V22H158.819ZM162.059 22V0.759999L164.219 0.759999V22H162.059ZM166.379 22V0.759999L168.539 0.759999V22H166.379ZM166.382 22V0.759999L167.462 0.759999V22H166.382ZM168.542 22V0.759999L170.702 0.759999V22H168.542ZM173.942 22V0.759999L177.182 0.759999V22H173.942ZM171.206 29.308L170.522 30.028V33.484H169.55V25.132H170.666V25.24C170.618 25.288 170.582 25.348 170.558 25.42C170.534 25.468 170.522 25.576 170.522 25.744V28.984L174.014 25.096C174.23 25.12 174.458 25.132 174.698 25.132H175.058L171.89 28.732L175.274 33.484L174.086 33.52L171.206 29.308ZM173.945 22V0.759999L176.105 0.759999V22H173.945ZM177.185 22V0.759999L179.345 0.759999V22H177.185ZM181.505 22V0.759999L183.665 0.759999V22H181.505ZM181.507 22V0.759999L183.667 0.759999V22H181.507ZM184.747 22V0.759999L187.987 0.759999V22L184.747 22ZM189.067 22V0.759999L190.147 0.759999V22H189.067ZM187.411 33.628C186.331 33.628 185.455 33.268 184.783 32.548L185.287 31.72L185.323 31.612L185.431 31.648C185.431 31.672 185.443 31.72 185.467 31.792C185.467 31.84 185.491 31.9 185.539 31.972C185.563 32.02 185.611 32.068 185.683 32.116C186.187 32.548 186.811 32.764 187.555 32.764C188.035 32.764 188.443 32.632 188.779 32.368C189.115 32.08 189.283 31.744 189.283 31.36C189.283 31.096 189.223 30.868 189.103 30.676C189.007 30.508 188.827 30.34 188.563 30.172C188.299 30.004 187.891 29.8 187.339 29.56C186.523 29.248 185.935 28.888 185.575 28.48C185.239 28.072 185.071 27.616 185.071 27.112C185.071 26.488 185.299 25.984 185.755 25.6C186.211 25.216 186.823 25.024 187.591 25.024C188.047 25.024 188.479 25.12 188.887 25.312C189.271 25.504 189.619 25.756 189.931 26.068L189.319 26.896L189.247 26.824C189.247 26.8 189.235 26.764 189.211 26.716C189.211 26.644 189.187 26.584 189.139 26.536C189.115 26.464 189.067 26.404 188.995 26.356C188.803 26.164 188.575 26.02 188.311 25.924C188.071 25.852 187.783 25.816 187.447 25.816C187.015 25.816 186.679 25.936 186.439 26.176C186.175 26.416 186.043 26.704 186.043 27.04C186.043 27.304 186.091 27.532 186.187 27.724C186.307 27.916 186.511 28.096 186.799 28.264C187.087 28.456 187.519 28.66 188.095 28.876C188.887 29.212 189.439 29.548 189.751 29.884C190.039 30.244 190.183 30.688 190.183 31.216C190.183 31.624 190.087 32.008 189.895 32.368C189.679 32.728 189.367 33.028 188.959 33.268C188.527 33.508 188.011 33.628 187.411 33.628ZM189.07 22V0.759999L190.15 0.759999V22H189.07ZM192.31 22V0.759999L193.39 0.759999V22H192.31ZM194.47 22V0.759999L196.63 0.759999V22H194.47ZM194.938 27.22C195.802 27.22 196.462 27.448 196.918 27.904C197.374 28.36 197.602 29.14 197.602 30.244V33.484H196.558V32.548C196.198 33.268 195.502 33.628 194.47 33.628C193.798 33.628 193.27 33.472 192.886 33.16C192.502 32.848 192.31 32.44 192.31 31.936C192.31 31.504 192.454 31.132 192.742 30.82C193.006 30.508 193.378 30.256 193.858 30.064C194.314 29.896 194.83 29.812 195.406 29.812C195.91 29.812 196.366 29.836 196.774 29.884C196.726 29.212 196.546 28.732 196.234 28.444C195.922 28.156 195.466 28.012 194.866 28.012C194.554 28.012 194.266 28.072 194.002 28.192C193.714 28.312 193.45 28.48 193.21 28.696L192.742 28.084C193.318 27.508 194.05 27.22 194.938 27.22ZM194.578 32.908C195.25 32.908 195.778 32.704 196.162 32.296C196.546 31.912 196.75 31.36 196.774 30.64C196.366 30.568 195.934 30.532 195.478 30.532C194.806 30.532 194.266 30.652 193.858 30.892C193.474 31.108 193.282 31.444 193.282 31.9C193.282 32.572 193.714 32.908 194.578 32.908ZM196.633 22V0.759999L198.793 0.759999V22H196.633ZM203.113 22V0.759999L204.193 0.759999V22H203.113ZM205.273 22V0.759999L206.353 0.759999V22H205.273ZM200.197 27.364H201.133V28.444C201.373 28.084 201.673 27.784 202.033 27.544C202.393 27.328 202.777 27.22 203.185 27.22C203.737 27.22 204.181 27.424 204.517 27.832C204.829 28.264 204.985 28.912 204.985 29.776V33.484H204.049V29.812C204.049 29.188 203.953 28.744 203.761 28.48C203.545 28.192 203.269 28.048 202.933 28.048C202.645 28.048 202.369 28.132 202.105 28.3C201.817 28.468 201.577 28.696 201.385 28.984C201.217 29.272 201.133 29.596 201.133 29.956V33.484H200.197V27.364ZM204.196 22V0.759999L205.276 0.759999V22H204.196ZM209.596 22V0.759999L210.676 0.759999V22L209.596 22ZM211.756 22V0.759999L213.916 0.759999V22H211.756ZM210.604 33.628C210.004 33.628 209.476 33.496 209.02 33.232C208.564 32.944 208.204 32.56 207.94 32.08C207.676 31.6 207.544 31.048 207.544 30.424C207.544 29.824 207.676 29.284 207.94 28.804C208.204 28.324 208.564 27.94 209.02 27.652C209.476 27.388 210.004 27.256 210.604 27.256C211.084 27.256 211.528 27.352 211.936 27.544C212.32 27.736 212.644 28.012 212.908 28.372L212.296 28.984L212.224 29.056L212.152 28.984C212.152 28.912 212.128 28.84 212.08 28.768C212.056 28.72 211.996 28.648 211.9 28.552C211.708 28.384 211.504 28.264 211.288 28.192C211.048 28.096 210.784 28.048 210.496 28.048C210.136 28.048 209.812 28.144 209.524 28.336C209.212 28.528 208.972 28.804 208.804 29.164C208.612 29.5 208.516 29.896 208.516 30.352C208.516 30.808 208.612 31.228 208.804 31.612C208.996 31.972 209.248 32.248 209.56 32.44C209.896 32.656 210.256 32.764 210.64 32.764C211.264 32.764 211.804 32.512 212.26 32.008L212.8 32.656C212.2 33.304 211.468 33.628 210.604 33.628ZM211.759 22V0.759999L212.839 0.759999V22H211.759ZM214.999 22V0.759999L219.319 0.759999V22H214.999ZM220.399 22V0.759999L221.479 0.759999V22H220.399ZM220.291 32.908C219.715 33.364 219.067 33.592 218.347 33.592C217.675 33.592 217.195 33.388 216.907 32.98C216.619 32.548 216.475 31.876 216.475 30.964C216.475 30.796 216.487 30.532 216.511 30.172L216.655 28.156H215.287V27.364H216.691L216.799 25.744L217.843 25.564H217.987V25.636C217.939 25.708 217.903 25.78 217.879 25.852C217.831 25.924 217.807 26.02 217.807 26.14L217.663 27.364H219.679V28.156H217.591L217.483 30.244C217.459 30.604 217.447 30.832 217.447 30.928C217.447 31.648 217.531 32.14 217.699 32.404C217.867 32.644 218.131 32.764 218.491 32.764C218.755 32.764 219.007 32.716 219.247 32.62C219.463 32.524 219.715 32.368 220.003 32.152L220.291 32.908ZM219.322 22V0.759999L220.402 0.759999V22H219.322ZM222.562 22V0.759999L226.882 0.759999V22H222.562ZM229.042 22V0.759999L230.122 0.759999V22H229.042ZM224.866 33.628C224.218 33.628 223.702 33.388 223.318 32.908C222.934 32.428 222.754 31.72 222.778 30.784V27.364H223.714V30.784C223.714 31.504 223.846 32.032 224.11 32.368C224.35 32.704 224.686 32.872 225.118 32.872C225.574 32.872 225.958 32.68 226.27 32.296C226.606 31.936 226.774 31.42 226.774 30.748V27.364H227.71V32.548C227.71 32.764 227.71 32.932 227.71 33.052C227.734 33.196 227.77 33.34 227.818 33.484H226.918C226.846 33.34 226.81 33.196 226.81 33.052C226.786 32.932 226.774 32.764 226.774 32.548C226.582 32.884 226.318 33.148 225.982 33.34C225.646 33.532 225.274 33.628 224.866 33.628ZM226.884 22V0.759999L227.964 0.759999V22H226.884ZM230.124 22V0.759999L231.204 0.759999V22H230.124ZM232.284 22V0.759999L234.444 0.759999V22H232.284ZM232.752 27.22C233.616 27.22 234.276 27.448 234.732 27.904C235.188 28.36 235.416 29.14 235.416 30.244V33.484H234.372V32.548C234.012 33.268 233.316 33.628 232.284 33.628C231.612 33.628 231.084 33.472 230.7 33.16C230.316 32.848 230.124 32.44 230.124 31.936C230.124 31.504 230.268 31.132 230.556 30.82C230.82 30.508 231.192 30.256 231.672 30.064C232.128 29.896 232.644 29.812 233.22 29.812C233.724 29.812 234.18 29.836 234.588 29.884C234.54 29.212 234.36 28.732 234.048 28.444C233.736 28.156 233.28 28.012 232.68 28.012C232.368 28.012 232.08 28.072 231.816 28.192C231.528 28.312 231.264 28.48 231.024 28.696L230.556 28.084C231.132 27.508 231.864 27.22 232.752 27.22ZM232.392 32.908C233.064 32.908 233.592 32.704 233.976 32.296C234.36 31.912 234.564 31.36 234.588 30.64C234.18 30.568 233.748 30.532 233.292 30.532C232.62 30.532 232.08 30.652 231.672 30.892C231.288 31.108 231.096 31.444 231.096 31.9C231.096 32.572 231.528 32.908 232.392 32.908ZM234.447 22V0.759999L235.527 0.759999V22H234.447ZM237.687 22V0.759999L238.767 0.759999V22H237.687ZM240.927 22V0.759999L245.247 0.759999V22H240.927ZM241.539 27.22C242.187 27.22 242.727 27.448 243.159 27.904L242.727 28.624L242.691 28.768L242.583 28.696C242.559 28.6 242.535 28.528 242.511 28.48C242.463 28.408 242.379 28.336 242.259 28.264C242.043 28.12 241.779 28.048 241.467 28.048C241.155 28.048 240.855 28.132 240.567 28.3C240.279 28.444 240.051 28.684 239.883 29.02C239.691 29.356 239.595 29.764 239.595 30.244V33.484H238.623V27.364H239.631L239.595 28.48C239.763 28.096 240.027 27.784 240.387 27.544C240.747 27.328 241.131 27.22 241.539 27.22ZM242.01 22V0.759999L244.17 0.759999V22H242.01ZM245.25 22V0.759999L247.41 0.759999V22H245.25ZM248.49 22V0.759999L252.81 0.759999V22H248.49ZM250.542 27.364C250.47 27.724 250.386 28.084 250.29 28.444C250.17 28.804 250.014 29.284 249.822 29.884L248.274 34.168C248.082 34.744 247.818 35.164 247.482 35.428C247.146 35.692 246.75 35.824 246.294 35.824C245.718 35.824 245.25 35.644 244.89 35.284L245.322 34.636L245.394 34.528L245.466 34.564C245.49 34.66 245.526 34.732 245.574 34.78C245.622 34.852 245.706 34.912 245.826 34.96C245.994 35.008 246.174 35.032 246.366 35.032C246.678 35.032 246.942 34.912 247.158 34.672C247.35 34.432 247.542 34.048 247.734 33.52L245.214 27.364H246.222L248.13 32.26L248.922 29.812C249.114 29.188 249.258 28.72 249.354 28.408C249.45 28.072 249.522 27.724 249.57 27.364H250.542ZM249.573 22V0.759999L250.653 0.759999V22H249.573ZM253.893 22V0.759999L257.133 0.759999V22L253.893 22ZM258.213 22V0.759999L260.373 0.759999V22H258.213ZM255.513 33.628C254.553 33.628 253.821 33.256 253.317 32.512C252.789 31.768 252.525 30.712 252.525 29.344C252.525 28.024 252.789 26.98 253.317 26.212C253.845 25.468 254.577 25.096 255.513 25.096C256.449 25.096 257.181 25.468 257.709 26.212C258.237 26.98 258.501 28.024 258.501 29.344C258.501 30.712 258.237 31.768 257.709 32.512C257.205 33.256 256.473 33.628 255.513 33.628ZM255.513 32.8C256.161 32.8 256.653 32.512 256.989 31.936C257.349 31.336 257.529 30.472 257.529 29.344C257.529 28.288 257.349 27.448 256.989 26.824C256.629 26.224 256.137 25.924 255.513 25.924C254.889 25.924 254.397 26.224 254.037 26.824C253.677 27.448 253.497 28.288 253.497 29.344C253.497 30.472 253.665 31.336 254.001 31.936C254.361 32.512 254.865 32.8 255.513 32.8ZM257.136 22V0.759999L259.296 0.759999V22H257.136ZM260.376 22V0.759999L263.616 0.759999V22H260.376ZM264.696 22V0.759999L265.776 0.759999V22H264.696ZM263.04 33.628C261.96 33.628 261.084 33.268 260.412 32.548L260.916 31.72L260.952 31.612L261.06 31.648C261.06 31.672 261.072 31.72 261.096 31.792C261.096 31.84 261.12 31.9 261.168 31.972C261.192 32.02 261.24 32.068 261.312 32.116C261.816 32.548 262.44 32.764 263.184 32.764C263.664 32.764 264.072 32.632 264.408 32.368C264.744 32.08 264.912 31.744 264.912 31.36C264.912 31.096 264.852 30.868 264.732 30.676C264.636 30.508 264.456 30.34 264.192 30.172C263.928 30.004 263.52 29.8 262.968 29.56C262.152 29.248 261.564 28.888 261.204 28.48C260.868 28.072 260.7 27.616 260.7 27.112C260.7 26.488 260.928 25.984 261.384 25.6C261.84 25.216 262.452 25.024 263.22 25.024C263.676 25.024 264.108 25.12 264.516 25.312C264.9 25.504 265.248 25.756 265.56 26.068L264.948 26.896L264.876 26.824C264.876 26.8 264.864 26.764 264.84 26.716C264.84 26.644 264.816 26.584 264.768 26.536C264.744 26.464 264.696 26.404 264.624 26.356C264.432 26.164 264.204 26.02 263.94 25.924C263.7 25.852 263.412 25.816 263.076 25.816C262.644 25.816 262.308 25.936 262.068 26.176C261.804 26.416 261.672 26.704 261.672 27.04C261.672 27.304 261.72 27.532 261.816 27.724C261.936 27.916 262.14 28.096 262.428 28.264C262.716 28.456 263.148 28.66 263.724 28.876C264.516 29.212 265.068 29.548 265.38 29.884C265.668 30.244 265.812 30.688 265.812 31.216C265.812 31.624 265.716 32.008 265.524 32.368C265.308 32.728 264.996 33.028 264.588 33.268C264.156 33.508 263.64 33.628 263.04 33.628ZM264.698 22V0.759999L266.858 0.759999V22H264.698ZM267.938 22V0.759999L270.098 0.759999V22H267.938ZM272.258 22V0.759999L274.418 0.759999V22H272.258ZM272.261 22V0.759999L273.341 0.759999V22H272.261ZM275.501 22V0.759999L277.661 0.759999V22L275.501 22ZM278.741 22V0.759999L281.981 0.759999V22H278.741ZM275.789 28.84L280.613 28.84V29.74L275.789 29.74V28.84ZM279.824 22V0.759999L280.904 0.759999V22H279.824ZM283.064 22V0.759999L284.144 0.759999V22H283.064ZM288.464 22V0.759999L290.624 0.759999V22H288.464ZM285.98 33.628C285.62 33.628 285.284 33.544 284.972 33.376C284.66 33.208 284.396 32.98 284.18 32.692L283.82 33.484H283.208V24.592H284.324V24.664C284.276 24.736 284.24 24.796 284.216 24.844C284.192 24.916 284.18 25.024 284.18 25.168V28.3C284.396 27.964 284.672 27.7 285.008 27.508C285.344 27.316 285.68 27.22 286.016 27.22C286.784 27.22 287.396 27.484 287.852 28.012C288.308 28.564 288.536 29.344 288.536 30.352C288.536 31.048 288.416 31.648 288.176 32.152C287.936 32.656 287.612 33.028 287.204 33.268C286.82 33.508 286.412 33.628 285.98 33.628ZM285.872 32.764C286.352 32.764 286.748 32.572 287.06 32.188C287.372 31.828 287.528 31.24 287.528 30.424C287.528 29.632 287.384 29.044 287.096 28.66C286.784 28.252 286.376 28.048 285.872 28.048C285.368 28.048 284.96 28.276 284.648 28.732C284.336 29.164 284.18 29.74 284.18 30.46C284.18 31.996 284.744 32.764 285.872 32.764ZM287.387 22V0.759999L289.547 0.759999V22H287.387ZM290.627 22V0.759999L292.787 0.759999V22H290.627ZM293.867 22V0.759999L298.187 0.759999V22H293.867ZM295.919 27.364C295.847 27.724 295.763 28.084 295.667 28.444C295.547 28.804 295.391 29.284 295.199 29.884L293.651 34.168C293.459 34.744 293.195 35.164 292.859 35.428C292.523 35.692 292.127 35.824 291.671 35.824C291.095 35.824 290.627 35.644 290.267 35.284L290.699 34.636L290.771 34.528L290.843 34.564C290.867 34.66 290.903 34.732 290.951 34.78C290.999 34.852 291.083 34.912 291.203 34.96C291.371 35.008 291.551 35.032 291.743 35.032C292.055 35.032 292.319 34.912 292.535 34.672C292.727 34.432 292.919 34.048 293.111 33.52L290.591 27.364H291.599L293.507 32.26L294.299 29.812C294.491 29.188 294.635 28.72 294.731 28.408C294.827 28.072 294.899 27.724 294.947 27.364H295.919ZM294.95 22V0.759999L297.11 0.759999V22H294.95ZM298.19 22V0.759999L300.35 0.759999V22L298.19 22ZM302.51 22V0.759999L304.67 0.759999V22H302.51ZM302.512 22V0.759999L303.592 0.759999V22H302.512ZM304.672 22V0.759999L305.752 0.759999V22H304.672ZM308.992 22V0.759999L311.152 0.759999V22H308.992ZM309.784 31.036H307.084L306.256 33.484H305.32L308.38 24.988H308.488L311.584 33.484H310.612L309.784 31.036ZM309.532 30.316L308.452 27.148L307.336 30.316H309.532ZM310.075 22V0.759999L311.155 0.759999V22H310.075ZM315.475 22V0.759999L317.635 0.759999V22H315.475ZM319.795 22V0.759999L320.875 0.759999V22L319.795 22ZM315.259 35.824C314.875 35.824 314.515 35.752 314.179 35.608C313.843 35.464 313.555 35.248 313.315 34.96L313.855 34.24L313.927 34.132L313.999 34.168C313.999 34.192 314.011 34.228 314.035 34.276C314.035 34.348 314.059 34.42 314.107 34.492C314.131 34.54 314.179 34.588 314.251 34.636C314.539 34.876 314.875 34.996 315.259 34.996C315.667 34.996 316.003 34.852 316.267 34.564C316.507 34.276 316.627 33.832 316.627 33.232V28.156H314.359V27.364H317.599V33.196C317.599 34.084 317.383 34.744 316.951 35.176C316.519 35.608 315.955 35.824 315.259 35.824ZM317.059 26.068C316.867 26.068 316.699 26.008 316.555 25.888C316.435 25.744 316.375 25.576 316.375 25.384C316.375 25.192 316.435 25.036 316.555 24.916C316.675 24.772 316.843 24.7 317.059 24.7C317.227 24.7 317.383 24.772 317.527 24.916C317.671 25.06 317.743 25.216 317.743 25.384C317.743 25.576 317.671 25.744 317.527 25.888C317.383 26.008 317.227 26.068 317.059 26.068ZM317.638 22V0.759999L319.798 0.759999V22H317.638ZM324.118 22V0.759999L325.198 0.759999V22H324.118ZM327.358 22V0.759999L328.438 0.759999V22H327.358ZM322.894 30.424L322.102 31.18V33.484H321.13V24.592H322.21V24.664C322.162 24.736 322.126 24.796 322.102 24.844C322.102 24.916 322.102 25.024 322.102 25.168V30.172L325.162 27.328C325.378 27.376 325.618 27.4 325.882 27.4H326.206L323.65 29.848L326.638 33.484L325.414 33.52L322.894 30.424ZM325.201 22V0.759999L327.361 0.759999V22H325.201ZM331.681 22V0.759999L332.761 0.759999V22H331.681ZM333.841 22V0.759999L334.921 0.759999V22H333.841ZM328.765 27.364H329.701V28.444C329.941 28.084 330.241 27.784 330.601 27.544C330.961 27.328 331.345 27.22 331.753 27.22C332.305 27.22 332.749 27.424 333.085 27.832C333.397 28.264 333.553 28.912 333.553 29.776V33.484H332.617V29.812C332.617 29.188 332.521 28.744 332.329 28.48C332.113 28.192 331.837 28.048 331.501 28.048C331.213 28.048 330.937 28.132 330.673 28.3C330.385 28.468 330.145 28.696 329.953 28.984C329.785 29.272 329.701 29.596 329.701 29.956V33.484H328.765V27.364ZM332.764 22V0.759999L333.844 0.759999V22H332.764ZM338.164 22V0.759999L340.324 0.759999V22H338.164ZM341.404 22V0.759999L342.484 0.759999V22L341.404 22ZM336.688 32.692H338.272V28.156H336.76V27.364H339.208V32.692H340.648V33.484H336.688V32.692ZM338.704 26.068C338.512 26.068 338.344 26.008 338.2 25.888C338.08 25.744 338.02 25.576 338.02 25.384C338.02 25.192 338.08 25.036 338.2 24.916C338.32 24.772 338.488 24.7 338.704 24.7C338.872 24.7 339.028 24.772 339.172 24.916C339.316 25.06 339.388 25.216 339.388 25.384C339.388 25.576 339.316 25.744 339.172 25.888C339.028 26.008 338.872 26.068 338.704 26.068ZM340.327 22V0.759999L341.407 0.759999V22H340.327ZM343.567 22V0.759999L345.727 0.759999V22H343.567ZM346.807 22V0.759999L347.887 0.759999V22H346.807ZM349.291 28.012C349.195 27.988 349.075 27.976 348.931 27.976C348.499 27.976 348.139 28.072 347.851 28.264C348.019 28.576 348.103 28.912 348.103 29.272C348.103 29.68 348.007 30.04 347.815 30.352C347.647 30.688 347.395 30.952 347.059 31.144C346.747 31.312 346.375 31.396 345.943 31.396C345.607 31.396 345.295 31.336 345.007 31.216C344.839 31.408 344.755 31.6 344.755 31.792C344.755 32.008 344.887 32.164 345.151 32.26C345.439 32.356 345.931 32.404 346.627 32.404C347.491 32.404 348.079 32.524 348.391 32.764C348.703 33.028 348.859 33.424 348.859 33.952C348.859 34.48 348.655 34.912 348.247 35.248C347.815 35.608 347.143 35.788 346.231 35.788C345.343 35.788 344.659 35.656 344.179 35.392C343.675 35.128 343.423 34.732 343.423 34.204C343.423 33.892 343.519 33.616 343.711 33.376C343.879 33.136 344.107 32.956 344.395 32.836C344.083 32.644 343.927 32.368 343.927 32.008C343.927 31.648 344.107 31.276 344.467 30.892C344.251 30.7 344.083 30.46 343.963 30.172C343.867 29.908 343.819 29.608 343.819 29.272C343.819 28.888 343.903 28.528 344.071 28.192C344.239 27.856 344.491 27.604 344.827 27.436C345.139 27.244 345.511 27.148 345.943 27.148C346.591 27.148 347.119 27.352 347.527 27.76C347.719 27.568 347.935 27.424 348.175 27.328C348.391 27.232 348.643 27.184 348.931 27.184L349.147 27.22L349.291 28.012ZM345.943 30.604C346.327 30.604 346.651 30.472 346.915 30.208C347.155 29.968 347.275 29.656 347.275 29.272C347.275 28.888 347.155 28.564 346.915 28.3C346.651 28.06 346.327 27.94 345.943 27.94C345.559 27.94 345.235 28.06 344.971 28.3C344.731 28.564 344.611 28.888 344.611 29.272C344.611 29.656 344.731 29.968 344.971 30.208C345.235 30.472 345.559 30.604 345.943 30.604ZM347.995 34.096C347.995 33.88 347.959 33.712 347.887 33.592C347.815 33.472 347.659 33.376 347.419 33.304C347.203 33.256 346.867 33.232 346.411 33.232C345.787 33.232 345.283 33.172 344.899 33.052C344.683 33.196 344.527 33.34 344.431 33.484C344.359 33.652 344.323 33.856 344.323 34.096C344.323 34.408 344.491 34.648 344.827 34.816C345.163 34.984 345.631 35.068 346.231 35.068C346.831 35.068 347.275 34.984 347.563 34.816C347.851 34.624 347.995 34.384 347.995 34.096ZM347.889 22V0.759999L348.969 0.759999V22H347.889ZM351.129 22V0.759999L353.289 0.759999V22H351.129ZM357.609 22V0.759999L358.689 0.759999V22H357.609ZM351.453 24.592H352.533V24.664C352.461 24.736 352.425 24.796 352.425 24.844C352.401 24.916 352.389 25.024 352.389 25.168V28.444C352.629 28.084 352.929 27.784 353.289 27.544C353.649 27.328 354.021 27.22 354.405 27.22C354.981 27.22 355.437 27.424 355.773 27.832C356.109 28.24 356.277 28.888 356.277 29.776V33.484H355.341V29.812C355.341 29.188 355.233 28.744 355.017 28.48C354.801 28.192 354.525 28.048 354.189 28.048C353.901 28.048 353.625 28.132 353.361 28.3C353.073 28.444 352.845 28.672 352.677 28.984C352.485 29.272 352.389 29.596 352.389 29.956V33.484H351.453V24.592ZM355.452 22V0.759999L356.532 0.759999V22H355.452ZM358.692 22V0.759999L363.012 0.759999V22H358.692ZM364.092 22V0.759999L365.172 0.759999V22L364.092 22ZM363.984 32.908C363.408 33.364 362.76 33.592 362.04 33.592C361.368 33.592 360.888 33.388 360.6 32.98C360.312 32.548 360.168 31.876 360.168 30.964C360.168 30.796 360.18 30.532 360.204 30.172L360.348 28.156H358.98V27.364H360.384L360.492 25.744L361.536 25.564H361.68V25.636C361.632 25.708 361.596 25.78 361.572 25.852C361.524 25.924 361.5 26.02 361.5 26.14L361.356 27.364H363.372V28.156H361.284L361.176 30.244C361.152 30.604 361.14 30.832 361.14 30.928C361.14 31.648 361.224 32.14 361.392 32.404C361.56 32.644 361.824 32.764 362.184 32.764C362.448 32.764 362.7 32.716 362.94 32.62C363.156 32.524 363.408 32.368 363.696 32.152L363.984 32.908Z" fill="#DADEE9" fill-opacity="0.9"/>
</svg>
