<svg width="434" height="67" viewBox="0 0 434 67" fill="none" xmlns="http://www.w3.org/2000/svg">
<path d="M30.584 42L23.64 31.952L14.744 19.6H22.392L29.176 29.52L38.232 42H30.584ZM14.584 42L23.128 29.808L28.536 32.336L21.912 42H14.584ZM29.688 31.6L24.312 29.168L30.584 19.6H37.912L29.688 31.6ZM55.569 42.32C53.8197 42.32 52.209 42.032 50.737 41.456C49.265 40.88 47.985 40.08 46.897 39.056C45.8303 38.0107 44.9983 36.784 44.401 35.376C43.825 33.9467 43.537 32.3787 43.537 30.672C43.537 28.9867 43.8357 27.44 44.433 26.032C45.0517 24.6027 45.905 23.3653 46.993 22.32C48.081 21.2747 49.3717 20.464 50.865 19.888C52.3583 19.312 53.9903 19.024 55.761 19.024C56.8277 19.024 57.8623 19.1627 58.865 19.44C59.889 19.696 60.849 20.08 61.745 20.592C62.641 21.104 63.441 21.744 64.145 22.512L60.337 26.928C59.9743 26.5227 59.569 26.16 59.121 25.84C58.673 25.52 58.161 25.2747 57.585 25.104C57.0303 24.912 56.4117 24.816 55.729 24.816C54.9397 24.816 54.193 24.9547 53.489 25.232C52.8063 25.488 52.209 25.872 51.697 26.384C51.185 26.896 50.7797 27.5147 50.481 28.24C50.2037 28.9653 50.065 29.7973 50.065 30.736C50.065 31.632 50.2037 32.4427 50.481 33.168C50.7797 33.872 51.1957 34.48 51.729 34.992C52.2837 35.4827 52.9343 35.8667 53.681 36.144C54.449 36.4213 55.3023 36.56 56.241 36.56C56.9023 36.56 57.521 36.464 58.097 36.272C58.6943 36.08 59.2383 35.824 59.729 35.504C60.2197 35.184 60.657 34.832 61.041 34.448L64.049 39.216C63.5157 39.8133 62.7903 40.3467 61.873 40.816C60.977 41.2853 59.9743 41.6587 58.865 41.936C57.777 42.192 56.6783 42.32 55.569 42.32ZM64.1185 42V19.6H80.4065V24.816H70.1985V36.784H80.8865V42H64.1185ZM67.1265 33.104V28.176H79.1265V33.104H67.1265ZM89.5288 48.08V19.6H99.6088V24.816H95.1288L95.3208 24.56V43.248L95.0008 42.864H99.6088V48.08H89.5288ZM113.101 42.32C111.331 42.32 109.773 42.0427 108.429 41.488C107.085 40.9333 106.04 40.2187 105.293 39.344L108.781 36.336C109.464 36.9547 110.232 37.4133 111.085 37.712C111.96 38.0107 112.728 38.16 113.389 38.16C113.624 38.16 113.837 38.1387 114.029 38.096C114.221 38.0533 114.371 37.9893 114.477 37.904C114.605 37.7973 114.701 37.6907 114.765 37.584C114.851 37.456 114.893 37.3173 114.893 37.168C114.893 36.8053 114.712 36.528 114.349 36.336C114.157 36.2507 113.837 36.144 113.389 36.016C112.963 35.8667 112.387 35.7067 111.661 35.536C110.765 35.3013 109.965 35.024 109.261 34.704C108.557 34.3627 107.96 33.968 107.469 33.52C107 33.072 106.627 32.56 106.349 31.984C106.093 31.3867 105.965 30.736 105.965 30.032C105.965 29.1787 106.157 28.4213 106.541 27.76C106.925 27.0987 107.459 26.5333 108.141 26.064C108.824 25.5733 109.592 25.2107 110.445 24.976C111.299 24.72 112.173 24.592 113.069 24.592C114.072 24.592 115.011 24.6987 115.885 24.912C116.781 25.104 117.613 25.392 118.381 25.776C119.171 26.1387 119.875 26.5867 120.493 27.12L117.421 30.512C117.059 30.192 116.632 29.8933 116.141 29.616C115.672 29.3387 115.181 29.1147 114.669 28.944C114.157 28.752 113.677 28.656 113.229 28.656C112.952 28.656 112.717 28.6773 112.525 28.72C112.333 28.7627 112.173 28.8267 112.045 28.912C111.917 28.9973 111.821 29.104 111.757 29.232C111.693 29.36 111.661 29.4987 111.661 29.648C111.661 29.84 111.715 30.0213 111.821 30.192C111.928 30.3627 112.099 30.5013 112.333 30.608C112.525 30.7147 112.845 30.8533 113.293 31.024C113.763 31.1733 114.435 31.3653 115.309 31.6C116.291 31.8773 117.144 32.1973 117.869 32.56C118.595 32.9227 119.181 33.3387 119.629 33.808C119.949 34.1707 120.195 34.576 120.365 35.024C120.536 35.4507 120.621 35.9307 120.621 36.464C120.621 37.5947 120.291 38.608 119.629 39.504C118.989 40.3787 118.104 41.072 116.973 41.584C115.843 42.0747 114.552 42.32 113.101 42.32ZM121.26 42V20.624H127.212V42H121.26ZM118.444 30V24.944H130.188V30H118.444ZM135.96 42.352C134.531 42.352 133.251 41.9787 132.12 41.232C131.011 40.464 130.136 39.4187 129.496 38.096C128.856 36.752 128.536 35.216 128.536 33.488C128.536 31.76 128.856 30.2347 129.496 28.912C130.158 27.568 131.054 26.512 132.184 25.744C133.315 24.976 134.606 24.592 136.056 24.592C136.803 24.592 137.518 24.6987 138.2 24.912C138.883 25.1253 139.491 25.424 140.024 25.808C140.579 26.192 141.038 26.64 141.4 27.152C141.784 27.664 142.03 28.208 142.136 28.784L140.76 29.168V18.32H146.744V42H141.336L140.92 38.192L142.104 38.416C142.019 38.9707 141.795 39.4827 141.432 39.952C141.07 40.4213 140.611 40.8373 140.056 41.2C139.523 41.5627 138.894 41.84 138.168 42.032C137.464 42.2453 136.728 42.352 135.96 42.352ZM137.656 37.488C138.339 37.488 138.926 37.328 139.416 37.008C139.907 36.6667 140.28 36.208 140.536 35.632C140.792 35.0347 140.92 34.32 140.92 33.488C140.92 32.656 140.792 31.9413 140.536 31.344C140.28 30.7253 139.907 30.2667 139.416 29.968C138.926 29.648 138.339 29.488 137.656 29.488C136.974 29.488 136.387 29.648 135.896 29.968C135.406 30.2667 135.032 30.7253 134.776 31.344C134.52 31.9413 134.392 32.656 134.392 33.488C134.392 34.32 134.52 35.0347 134.776 35.632C135.032 36.208 135.406 36.6667 135.896 37.008C136.387 37.328 136.974 37.488 137.656 37.488ZM149.851 42.352C148.891 42.352 148.145 42.0853 147.611 41.552C147.099 41.0187 146.843 40.2613 146.843 39.28C146.843 38.384 147.121 37.648 147.675 37.072C148.23 36.496 148.955 36.208 149.851 36.208C150.79 36.208 151.526 36.4747 152.059 37.008C152.593 37.5413 152.859 38.2987 152.859 39.28C152.859 40.176 152.582 40.912 152.027 41.488C151.473 42.064 150.747 42.352 149.851 42.352ZM166.985 42.288C165.577 42.288 164.307 41.9147 163.177 41.168C162.067 40.4 161.182 39.3547 160.521 38.032C159.881 36.688 159.561 35.1627 159.561 33.456C159.561 31.7067 159.881 30.1707 160.521 28.848C161.161 27.5253 162.046 26.4907 163.177 25.744C164.307 24.976 165.609 24.592 167.081 24.592C167.87 24.592 168.595 24.6987 169.257 24.912C169.918 25.1253 170.494 25.4347 170.985 25.84C171.475 26.2453 171.902 26.704 172.265 27.216C172.627 27.728 172.926 28.2827 173.161 28.88L171.945 28.816V24.944H177.801V42H171.817V37.84L173.129 37.904C172.937 38.5227 172.649 39.0987 172.265 39.632C171.902 40.1653 171.454 40.6347 170.921 41.04C170.387 41.424 169.79 41.7333 169.129 41.968C168.489 42.1813 167.774 42.288 166.985 42.288ZM168.681 37.392C169.363 37.392 169.95 37.2427 170.441 36.944C170.931 36.624 171.305 36.1653 171.561 35.568C171.838 34.9707 171.977 34.2667 171.977 33.456C171.977 32.624 171.838 31.9093 171.561 31.312C171.305 30.7147 170.931 30.2667 170.441 29.968C169.95 29.648 169.363 29.488 168.681 29.488C167.998 29.488 167.411 29.648 166.921 29.968C166.451 30.2667 166.089 30.7147 165.833 31.312C165.577 31.9093 165.449 32.624 165.449 33.456C165.449 34.2667 165.577 34.9707 165.833 35.568C166.089 36.1653 166.451 36.624 166.921 36.944C167.411 37.2427 167.998 37.392 168.681 37.392ZM179.077 42V24.944H184.645L184.965 30.544L183.717 29.584C183.995 28.6453 184.421 27.8027 184.997 27.056C185.595 26.288 186.309 25.6907 187.141 25.264C187.973 24.816 188.848 24.592 189.765 24.592C190.149 24.592 190.512 24.624 190.853 24.688C191.195 24.7307 191.515 24.7947 191.813 24.88L190.181 31.472C189.947 31.3227 189.616 31.1947 189.189 31.088C188.763 30.96 188.304 30.896 187.813 30.896C187.387 30.896 187.003 30.9707 186.661 31.12C186.32 31.248 186.032 31.44 185.797 31.696C185.563 31.952 185.381 32.2613 185.253 32.624C185.125 32.9653 185.061 33.3707 185.061 33.84V42H179.077ZM198.664 42.32C196.851 42.32 195.229 41.936 193.8 41.168C192.371 40.4 191.251 39.3547 190.44 38.032C189.629 36.7093 189.224 35.184 189.224 33.456C189.224 31.728 189.629 30.2027 190.44 28.88C191.251 27.5573 192.371 26.512 193.8 25.744C195.229 24.976 196.851 24.592 198.664 24.592C200.477 24.592 202.088 24.976 203.496 25.744C204.925 26.512 206.045 27.5573 206.856 28.88C207.667 30.2027 208.072 31.728 208.072 33.456C208.072 35.184 207.667 36.7093 206.856 38.032C206.045 39.3547 204.925 40.4 203.496 41.168C202.088 41.936 200.477 42.32 198.664 42.32ZM198.664 37.296C199.304 37.296 199.88 37.136 200.392 36.816C200.925 36.4747 201.331 36.016 201.608 35.44C201.907 34.8427 202.056 34.1813 202.056 33.456C202.056 32.688 201.907 32.016 201.608 31.44C201.331 30.864 200.925 30.416 200.392 30.096C199.88 29.7547 199.304 29.584 198.664 29.584C198.003 29.584 197.416 29.7547 196.904 30.096C196.392 30.416 195.987 30.8747 195.688 31.472C195.389 32.048 195.24 32.7093 195.24 33.456C195.24 34.1813 195.389 34.8427 195.688 35.44C195.987 36.016 196.392 36.4747 196.904 36.816C197.416 37.136 198.003 37.296 198.664 37.296ZM213.875 42.352C212.595 42.352 211.507 42.0853 210.611 41.552C209.715 40.9973 209.032 40.208 208.563 39.184C208.094 38.16 207.859 36.9227 207.859 35.472V24.944H213.811V34.864C213.811 35.4187 213.907 35.888 214.099 36.272C214.291 36.656 214.558 36.9547 214.899 37.168C215.24 37.36 215.656 37.456 216.147 37.456C216.531 37.456 216.872 37.4027 217.171 37.296C217.491 37.1893 217.758 37.0293 217.971 36.816C218.184 36.5813 218.355 36.3253 218.483 36.048C218.611 35.7493 218.675 35.4293 218.675 35.088V24.944H224.627V42H219.123L218.803 38.544L219.923 38.16C219.688 38.9493 219.272 39.664 218.675 40.304C218.078 40.944 217.363 41.4453 216.531 41.808C215.699 42.1707 214.814 42.352 213.875 42.352ZM225.978 42V24.944H231.546L231.802 28.4L230.586 28.784C230.799 27.9733 231.215 27.2587 231.834 26.64C232.452 26 233.188 25.4987 234.042 25.136C234.895 24.7733 235.791 24.592 236.73 24.592C238.01 24.592 239.087 24.8587 239.962 25.392C240.858 25.904 241.53 26.6827 241.978 27.728C242.447 28.752 242.682 30.0107 242.682 31.504V42H236.73V31.984C236.73 31.4293 236.644 30.9707 236.474 30.608C236.303 30.224 236.047 29.936 235.706 29.744C235.364 29.552 234.959 29.4667 234.49 29.488C234.127 29.488 233.786 29.5413 233.466 29.648C233.167 29.7547 232.9 29.9253 232.666 30.16C232.431 30.3733 232.25 30.6187 232.122 30.896C232.015 31.1733 231.962 31.4827 231.962 31.824V42H228.986C228.26 42 227.642 42 227.13 42C226.639 42 226.255 42 225.978 42ZM249.892 42.352C248.462 42.352 247.182 41.9787 246.052 41.232C244.942 40.464 244.068 39.4187 243.428 38.096C242.788 36.752 242.468 35.216 242.468 33.488C242.468 31.76 242.788 30.2347 243.428 28.912C244.089 27.568 244.985 26.512 246.116 25.744C247.246 24.976 248.537 24.592 249.988 24.592C250.734 24.592 251.449 24.6987 252.132 24.912C252.814 25.1253 253.422 25.424 253.956 25.808C254.51 26.192 254.969 26.64 255.332 27.152C255.716 27.664 255.961 28.208 256.068 28.784L254.692 29.168V18.32H260.676V42H255.268L254.852 38.192L256.036 38.416C255.95 38.9707 255.726 39.4827 255.364 39.952C255.001 40.4213 254.542 40.8373 253.988 41.2C253.454 41.5627 252.825 41.84 252.1 42.032C251.396 42.2453 250.66 42.352 249.892 42.352ZM251.588 37.488C252.27 37.488 252.857 37.328 253.348 37.008C253.838 36.6667 254.212 36.208 254.468 35.632C254.724 35.0347 254.852 34.32 254.852 33.488C254.852 32.656 254.724 31.9413 254.468 31.344C254.212 30.7253 253.838 30.2667 253.348 29.968C252.857 29.648 252.27 29.488 251.588 29.488C250.905 29.488 250.318 29.648 249.828 29.968C249.337 30.2667 248.964 30.7253 248.708 31.344C248.452 31.9413 248.324 32.656 248.324 33.488C248.324 34.32 248.452 35.0347 248.708 35.632C248.964 36.208 249.337 36.6667 249.828 37.008C250.318 37.328 250.905 37.488 251.588 37.488ZM268.099 48.08V42.864H272.579L272.387 43.12V24.432L272.707 24.816H268.099V19.6H278.179V48.08H268.099Z" fill="#212793" fill-opacity="0.75"/>
<rect x="291.5" y="18.5" width="85" height="25" rx="12.5" stroke="#1219A4" stroke-opacity="0.75"/>
<path d="M313.844 38.207C314.883 37.3477 315.777 36.5625 316.527 35.8516C317.277 35.1328 317.91 34.4766 318.426 33.8828C318.949 33.2891 319.367 32.7461 319.68 32.2539C320 31.7617 320.246 31.3125 320.418 30.9062C320.59 30.5 320.703 30.1289 320.758 29.793C320.82 29.4492 320.852 29.1289 320.852 28.832C320.852 28.3633 320.777 27.9453 320.629 27.5781C320.48 27.2031 320.277 26.8867 320.02 26.6289C319.77 26.3633 319.477 26.1641 319.141 26.0312C318.805 25.8906 318.453 25.8203 318.086 25.8203C317.734 25.8203 317.395 25.875 317.066 25.9844C316.746 26.0859 316.441 26.2188 316.152 26.3828C315.871 26.5391 315.609 26.7148 315.367 26.9102C315.133 27.1055 314.926 27.2969 314.746 27.4844C314.559 27.1953 314.402 26.9297 314.277 26.6875C314.152 26.4453 314.051 26.2344 313.973 26.0547C313.887 25.8516 313.82 25.6641 313.773 25.4922C313.891 25.3828 314.078 25.2344 314.336 25.0469C314.602 24.8594 314.93 24.6758 315.32 24.4961C315.719 24.3164 316.176 24.1602 316.691 24.0273C317.215 23.8945 317.797 23.8281 318.438 23.8281C319.164 23.8281 319.824 23.9375 320.418 24.1562C321.012 24.375 321.516 24.6875 321.93 25.0938C322.352 25.4922 322.676 25.9766 322.902 26.5469C323.129 27.1172 323.242 27.7539 323.242 28.457C323.242 28.9023 323.211 29.3438 323.148 29.7812C323.086 30.2188 322.969 30.668 322.797 31.1289C322.625 31.5898 322.387 32.0703 322.082 32.5703C321.785 33.0625 321.398 33.5938 320.922 34.1641C320.445 34.7266 319.871 35.3281 319.199 35.9688C318.527 36.6094 317.734 37.3047 316.82 38.0547C317.195 38.0547 317.578 38.0508 317.969 38.043C318.367 38.0273 318.762 38.0117 319.152 37.9961C319.543 37.9727 319.926 37.9531 320.301 37.9375C320.676 37.9141 321.027 37.8906 321.355 37.8672C322.129 37.8203 322.891 37.7695 323.641 37.7148C323.641 37.7852 323.645 37.8633 323.652 37.9492C323.66 38.0195 323.664 38.0977 323.664 38.1836C323.672 38.2617 323.676 38.3438 323.676 38.4297C323.676 38.6641 323.652 38.9258 323.605 39.2148C323.559 39.4961 323.465 39.7578 323.324 40H313.844V38.207ZM328.623 40.2344C327.616 40.2344 326.748 40.0469 326.022 39.6719C325.295 39.2969 324.698 38.7578 324.229 38.0547C323.76 37.3438 323.413 36.4805 323.186 35.4648C322.959 34.4492 322.846 33.3047 322.846 32.0312C322.846 30.7891 322.963 29.6641 323.198 28.6562C323.44 27.6406 323.799 26.7773 324.276 26.0664C324.76 25.3477 325.362 24.7969 326.08 24.4141C326.807 24.0234 327.655 23.8281 328.623 23.8281C329.647 23.8281 330.518 24.0078 331.237 24.3672C331.963 24.7188 332.553 25.2344 333.006 25.9141C333.467 26.5938 333.803 27.4297 334.014 28.4219C334.225 29.4141 334.33 30.5469 334.33 31.8203C334.33 33.0625 334.217 34.1992 333.991 35.2305C333.764 36.2617 333.416 37.1484 332.948 37.8906C332.487 38.6328 331.897 39.2109 331.178 39.625C330.459 40.0312 329.608 40.2344 328.623 40.2344ZM328.612 38.3477C329.143 38.3477 329.596 38.1758 329.971 37.832C330.346 37.4805 330.651 37.0117 330.885 36.4258C331.127 35.832 331.303 35.1406 331.413 34.3516C331.522 33.5547 331.577 32.7109 331.577 31.8203C331.577 30.8594 331.522 30 331.413 29.2422C331.303 28.4844 331.131 27.8438 330.897 27.3203C330.663 26.7969 330.358 26.3984 329.983 26.125C329.608 25.8438 329.155 25.7031 328.623 25.7031C328.077 25.7031 327.608 25.8594 327.217 26.1719C326.834 26.4844 326.522 26.9219 326.28 27.4844C326.038 28.0469 325.862 28.7148 325.752 29.4883C325.643 30.2617 325.588 31.1094 325.588 32.0312C325.588 32.9531 325.643 33.8008 325.752 34.5742C325.862 35.3477 326.038 36.0156 326.28 36.5781C326.522 37.1328 326.834 37.5664 327.217 37.8789C327.6 38.1914 328.065 38.3477 328.612 38.3477ZM333.747 38.207C334.786 37.3477 335.68 36.5625 336.43 35.8516C337.18 35.1328 337.813 34.4766 338.329 33.8828C338.852 33.2891 339.27 32.7461 339.583 32.2539C339.903 31.7617 340.149 31.3125 340.321 30.9062C340.493 30.5 340.606 30.1289 340.661 29.793C340.723 29.4492 340.755 29.1289 340.755 28.832C340.755 28.3633 340.68 27.9453 340.532 27.5781C340.384 27.2031 340.18 26.8867 339.923 26.6289C339.673 26.3633 339.38 26.1641 339.044 26.0312C338.708 25.8906 338.356 25.8203 337.989 25.8203C337.638 25.8203 337.298 25.875 336.97 25.9844C336.649 26.0859 336.345 26.2188 336.055 26.3828C335.774 26.5391 335.513 26.7148 335.27 26.9102C335.036 27.1055 334.829 27.2969 334.649 27.4844C334.462 27.1953 334.305 26.9297 334.18 26.6875C334.055 26.4453 333.954 26.2344 333.876 26.0547C333.79 25.8516 333.723 25.6641 333.677 25.4922C333.794 25.3828 333.981 25.2344 334.239 25.0469C334.505 24.8594 334.833 24.6758 335.223 24.4961C335.622 24.3164 336.079 24.1602 336.595 24.0273C337.118 23.8945 337.7 23.8281 338.341 23.8281C339.067 23.8281 339.727 23.9375 340.321 24.1562C340.915 24.375 341.419 24.6875 341.833 25.0938C342.255 25.4922 342.579 25.9766 342.805 26.5469C343.032 27.1172 343.145 27.7539 343.145 28.457C343.145 28.9023 343.114 29.3438 343.052 29.7812C342.989 30.2188 342.872 30.668 342.7 31.1289C342.528 31.5898 342.29 32.0703 341.985 32.5703C341.688 33.0625 341.302 33.5938 340.825 34.1641C340.348 34.7266 339.774 35.3281 339.102 35.9688C338.43 36.6094 337.638 37.3047 336.723 38.0547C337.098 38.0547 337.481 38.0508 337.872 38.043C338.27 38.0273 338.665 38.0117 339.055 37.9961C339.446 37.9727 339.829 37.9531 340.204 37.9375C340.579 37.9141 340.93 37.8906 341.259 37.8672C342.032 37.8203 342.794 37.7695 343.544 37.7148C343.544 37.7852 343.548 37.8633 343.555 37.9492C343.563 38.0195 343.567 38.0977 343.567 38.1836C343.575 38.2617 343.579 38.3438 343.579 38.4297C343.579 38.6641 343.555 38.9258 343.509 39.2148C343.462 39.4961 343.368 39.7578 343.227 40H333.747V38.207ZM342.562 39.2734C342.593 39.0938 342.644 38.8984 342.714 38.6875C342.777 38.5078 342.859 38.2969 342.96 38.0547C343.07 37.8125 343.214 37.5547 343.394 37.2812C343.644 37.4531 343.925 37.6094 344.237 37.75C344.503 37.8672 344.812 37.9766 345.163 38.0781C345.515 38.1719 345.89 38.2188 346.288 38.2188C346.976 38.2188 347.546 38.125 347.999 37.9375C348.46 37.7422 348.827 37.4922 349.101 37.1875C349.374 36.875 349.566 36.5273 349.675 36.1445C349.784 35.7617 349.839 35.375 349.839 34.9844C349.839 33.9688 349.57 33.2227 349.03 32.7461C348.499 32.2695 347.722 32.0312 346.698 32.0312C346.386 32.0312 346.089 32.0625 345.808 32.125C345.527 32.1875 345.277 32.2539 345.058 32.3242C344.8 32.4102 344.566 32.5039 344.355 32.6055C344.175 32.4492 344.027 32.293 343.909 32.1367C343.792 31.9805 343.698 31.8398 343.628 31.7148C343.542 31.5742 343.476 31.4414 343.429 31.3164C343.484 30.4805 343.538 29.6406 343.593 28.7969C343.616 28.4375 343.64 28.0586 343.663 27.6602C343.695 27.2617 343.722 26.8594 343.745 26.4531C343.769 26.0391 343.792 25.6328 343.816 25.2344C343.839 24.8281 343.859 24.4375 343.874 24.0625H351.948C351.948 24.1172 351.952 24.1758 351.96 24.2383C351.968 24.293 351.972 24.3555 351.972 24.4258C351.98 24.4961 351.984 24.5703 351.984 24.6484C351.984 24.8281 351.956 25.0703 351.902 25.375C351.847 25.6797 351.726 26.0078 351.538 26.3594C351.038 26.3438 350.495 26.3242 349.909 26.3008C349.409 26.2852 348.835 26.2695 348.187 26.2539C347.538 26.2383 346.859 26.2305 346.148 26.2305L345.855 30.5898C346.152 30.4727 346.452 30.3945 346.757 30.3555C347.07 30.3164 347.366 30.2969 347.648 30.2969C348.39 30.2969 349.058 30.4023 349.652 30.6133C350.253 30.8242 350.761 31.125 351.175 31.5156C351.597 31.8984 351.921 32.3633 352.148 32.9102C352.374 33.457 352.487 34.0703 352.487 34.75C352.487 35.5859 352.355 36.3438 352.089 37.0234C351.831 37.6953 351.452 38.2695 350.952 38.7461C350.452 39.2227 349.839 39.5898 349.112 39.8477C348.386 40.1055 347.562 40.2344 346.64 40.2344C346.077 40.2344 345.55 40.1836 345.058 40.082C344.573 39.9883 344.144 39.8789 343.769 39.7539C343.339 39.6133 342.937 39.4531 342.562 39.2734Z" fill="#212793" fill-opacity="0.75"/>
<path d="M404.078 12.8602L423.799 12.8602L433.659 29.9385L423.799 47.0168L404.078 47.0168L394.218 29.9385L404.078 12.8602Z" fill="#212793" fill-opacity="0.75"/>
<path d="M408.487 36.9938C408.518 36.8141 408.569 36.6188 408.639 36.4079C408.702 36.2282 408.784 36.0211 408.885 35.7868C408.995 35.5446 409.139 35.2868 409.319 35.0133C409.663 35.1852 410.022 35.3414 410.397 35.4821C410.725 35.5993 411.096 35.7047 411.51 35.7985C411.925 35.8922 412.354 35.9391 412.8 35.9391C413.268 35.9391 413.702 35.861 414.1 35.7047C414.499 35.5485 414.843 35.3297 415.132 35.0485C415.428 34.7672 415.659 34.4313 415.823 34.0407C415.987 33.6422 416.069 33.2008 416.069 32.7164C416.069 32.4352 416.01 32.1539 415.893 31.8727C415.776 31.5836 415.596 31.3258 415.354 31.0993C415.112 30.8649 414.8 30.6774 414.417 30.5368C414.042 30.3883 413.593 30.3141 413.069 30.3141H411.733C411.686 30.1032 411.647 29.9079 411.616 29.7282C411.593 29.5407 411.581 29.3727 411.581 29.2243C411.581 29.0133 411.593 28.8258 411.616 28.6618C411.632 28.5758 411.647 28.486 411.663 28.3922H413.069C413.374 28.3922 413.663 28.3297 413.936 28.2047C414.21 28.0797 414.448 27.9039 414.651 27.6774C414.862 27.443 415.026 27.1657 415.143 26.8454C415.26 26.5172 415.319 26.1539 415.319 25.7555C415.319 25.4039 415.257 25.0914 415.132 24.818C415.014 24.5446 414.843 24.3141 414.616 24.1266C414.397 23.9391 414.135 23.7985 413.831 23.7047C413.526 23.6032 413.19 23.5524 412.823 23.5524C412.409 23.5524 412.014 23.6032 411.639 23.7047C411.272 23.7985 410.952 23.9039 410.678 24.0211C410.35 24.1618 410.05 24.3141 409.776 24.4782C409.596 24.2125 409.452 23.9625 409.343 23.7282C409.233 23.4938 409.147 23.2868 409.085 23.1071C409.014 22.9039 408.968 22.7086 408.944 22.5211C409.319 22.3414 409.725 22.1813 410.163 22.0407C410.538 21.9157 410.971 21.8024 411.464 21.7008C411.956 21.5993 412.483 21.5485 413.046 21.5485C414.639 21.5485 415.874 21.8805 416.749 22.5446C417.632 23.2086 418.073 24.2125 418.073 25.5563C418.073 26.025 418.01 26.4586 417.885 26.8571C417.76 27.2555 417.585 27.6149 417.358 27.9352C417.132 28.2477 416.858 28.5172 416.538 28.7438C416.218 28.9704 415.862 29.15 415.471 29.2829C415.94 29.3922 416.378 29.5602 416.784 29.7868C417.19 30.0055 417.538 30.275 417.827 30.5954C418.124 30.9079 418.354 31.2633 418.518 31.6618C418.69 32.0602 418.776 32.4938 418.776 32.9625C418.776 33.7516 418.635 34.4547 418.354 35.0719C418.073 35.6891 417.675 36.2125 417.159 36.6422C416.643 37.0719 416.018 37.4 415.284 37.6266C414.557 37.8454 413.741 37.9547 412.835 37.9547C412.249 37.9547 411.69 37.9039 411.159 37.8024C410.635 37.7086 410.175 37.5993 409.776 37.4743C409.307 37.3336 408.878 37.1735 408.487 36.9938Z" fill="white"/>
</svg>
