<svg width="104" height="25" viewBox="0 0 104 25" fill="none" xmlns="http://www.w3.org/2000/svg">
<rect x="0.5" y="0.5" width="103" height="24" rx="2.5" stroke="#212793" stroke-opacity="0.75"/>
<path d="M3 20V5.84H5.16V20H3ZM5.88 20V5.84H8.04V20H5.88ZM8.76 20V5.84H9.48V20H8.76ZM10.2 20V5.84H10.92V20H10.2ZM13.08 20V5.84H13.8V20H13.08ZM11.6512 20V5.84H13.8112V20H11.6512ZM14.5312 20V5.84H15.2513V20H14.5312ZM15.9713 20V5.84H18.1313V20H15.9713ZM20.2913 20V5.84H21.0113V20H20.2913ZM21.7313 20V5.84H22.4513V20H21.7313ZM20.3025 20V5.84H22.4625V20H20.3025ZM23.1825 20V5.84H25.3425V20H23.1825ZM26.0625 20V5.84H26.7825V20H26.0625ZM27.5025 20V5.84H28.2225V20H27.5025ZM30.3825 20V5.84H31.1025V20H30.3825ZM28.9538 20V5.84H31.1138V20H28.9538ZM31.8338 20V5.84H32.5538V20H31.8338ZM33.2738 20V5.84H35.4338V20H33.2738ZM36.1538 20V5.84H36.8738V20H36.1538ZM39.0338 20V5.84H39.7538V20H39.0338ZM37.605 20V5.84H39.765V20H37.605ZM40.485 20V5.84H41.205V20H40.485ZM41.925 20V5.84H42.645V20H41.925ZM43.365 20V5.84H45.525V20H43.365ZM47.685 20V5.84H48.405V20H47.685ZM46.2562 20V5.84H48.4162V20H46.2562ZM50.5762 20V5.84H51.2962V20H50.5762ZM52.0162 20V5.84H54.1762V20H52.0162ZM54.8962 20V5.84H55.6162V20H54.8962ZM56.3362 20V5.84H57.0562V20H56.3362ZM54.9075 20V5.84H55.6275V20H54.9075ZM57.7875 20V5.84H59.9475V20H57.7875ZM60.6675 20V5.84H61.3875V20H60.6675ZM62.1075 20V5.84H64.2675V20H62.1075ZM64.9875 20V5.84H65.7075V20H64.9875ZM63.5588 20V5.84H65.7188V20H63.5588ZM66.4388 20V5.84H68.5988V20H66.4388ZM69.3188 20V5.84H70.0388V20H69.3188ZM72.1988 20V5.84H72.9188V20H72.1988ZM73.6388 20V5.84H74.3588V20H73.6388ZM72.21 20V5.84H74.37V20H72.21ZM75.09 20V5.84H75.81V20H75.09ZM76.53 20V5.84H77.25V20H76.53ZM79.41 20V5.84H80.13V20H79.41ZM80.85 20V5.84H83.01V20H80.85ZM80.8613 20V5.84H83.0213V20H80.8613ZM83.7413 20V5.84H84.4613V20H83.7413ZM85.1813 20V5.84H85.9013V20H85.1813ZM86.6213 20V5.84H88.7813V20H86.6213ZM90.9413 20V5.84H91.6613V20H90.9413ZM89.5125 20V5.84H90.2325V20H89.5125ZM90.9525 20V5.84H91.6725V20H90.9525ZM92.3925 20V5.84H94.5525V20H92.3925ZM96.7125 20V5.84H97.4325V20H96.7125ZM98.1525 20V5.84H100.312V20H98.1525Z" fill="#212793" fill-opacity="0.75"/>
</svg>
