<svg width="58" height="24" viewBox="0 0 58 24" fill="none" xmlns="http://www.w3.org/2000/svg">
<path d="M10.128 23.192C8.31467 23.192 6.69333 22.8187 5.264 22.072C3.856 21.304 2.74667 20.2587 1.936 18.936C1.12533 17.592 0.72 16.0773 0.72 14.392V0.567999H5.552V14.104C5.552 15 5.75467 15.8107 6.16 16.536C6.56533 17.24 7.10933 17.8053 7.792 18.232C8.496 18.6587 9.27467 18.872 10.128 18.872C11.0027 18.872 11.792 18.6587 12.496 18.232C13.2213 17.8053 13.7867 17.24 14.192 16.536C14.6187 15.8107 14.832 15 14.832 14.104V0.567999H19.504V14.392C19.504 16.0773 19.0987 17.592 18.288 18.936C17.4773 20.2587 16.3573 21.304 14.928 22.072C13.52 22.8187 11.92 23.192 10.128 23.192ZM28.8822 23.32C27.4956 23.32 26.2262 23.1493 25.0742 22.808C23.9436 22.4667 22.9302 21.9653 22.0342 21.304C21.1596 20.6427 20.3702 19.8427 19.6662 18.904L22.6742 15.48C23.7196 16.9307 24.7542 17.9227 25.7782 18.456C26.8236 18.968 27.9542 19.224 29.1702 19.224C29.8316 19.224 30.4182 19.1387 30.9303 18.968C31.4636 18.776 31.8796 18.5093 32.1783 18.168C32.4769 17.8267 32.6263 17.4213 32.6263 16.952C32.6263 16.6107 32.5516 16.3013 32.4023 16.024C32.2529 15.7253 32.0396 15.4693 31.7622 15.256C31.4849 15.0213 31.1542 14.8187 30.7702 14.648C30.3862 14.456 29.9596 14.296 29.4902 14.168C29.0209 14.0187 28.5089 13.9013 27.9542 13.816C26.7596 13.5387 25.7142 13.208 24.8182 12.824C23.9222 12.4187 23.1756 11.928 22.5782 11.352C21.9809 10.7547 21.5329 10.0827 21.2342 9.336C20.9569 8.58933 20.8182 7.74667 20.8182 6.808C20.8182 5.848 21.0316 4.96267 21.4582 4.152C21.8849 3.32 22.4716 2.60533 23.2182 2.008C23.9862 1.41067 24.8609 0.951999 25.8422 0.631998C26.8449 0.311998 27.9009 0.151999 29.0103 0.151999C30.3756 0.151999 31.5702 0.311998 32.5942 0.631998C33.6182 0.930665 34.5036 1.368 35.2502 1.944C36.0183 2.52 36.6583 3.224 37.1702 4.056L34.1302 7C33.6823 6.40267 33.1916 5.90133 32.6582 5.496C32.1463 5.09067 31.5809 4.792 30.9622 4.6C30.3649 4.38667 29.7462 4.28 29.1062 4.28C28.4022 4.28 27.7942 4.376 27.2822 4.568C26.7702 4.73867 26.3649 4.99467 26.0662 5.336C25.7889 5.67733 25.6502 6.09333 25.6502 6.584C25.6502 6.968 25.7462 7.30933 25.9382 7.608C26.1302 7.90667 26.4076 8.17333 26.7702 8.408C27.1329 8.62133 27.5702 8.81333 28.0822 8.984C28.5942 9.15467 29.1596 9.304 29.7782 9.432C30.9516 9.66667 32.0076 9.976 32.9462 10.36C33.8849 10.744 34.6849 11.2133 35.3463 11.768C36.0289 12.3013 36.5516 12.9413 36.9142 13.688C37.2769 14.4133 37.4583 15.2347 37.4583 16.152C37.4583 17.6667 37.0956 18.9573 36.3703 20.024C35.6449 21.0907 34.6422 21.912 33.3623 22.488C32.0823 23.0427 30.5889 23.32 28.8822 23.32ZM35.9497 23L44.7177 0.599998H49.0057L57.7417 23H52.8137L48.3017 10.936C48.1737 10.5947 48.0137 10.1573 47.8217 9.624C47.6511 9.09067 47.4697 8.52533 47.2777 7.928C47.0857 7.33067 46.9044 6.76533 46.7337 6.232C46.5631 5.67733 46.4351 5.21867 46.3497 4.856L47.2137 4.824C47.0857 5.31467 46.9364 5.82667 46.7657 6.36C46.6164 6.872 46.4564 7.40533 46.2857 7.96C46.1151 8.49333 45.9337 9.016 45.7417 9.528C45.5497 10.04 45.3684 10.5413 45.1977 11.032L40.6857 23H35.9497ZM40.0137 18.296L41.5817 14.424H51.8537L53.4537 18.296H40.0137Z" fill="#1932C8" fill-opacity="0.5"/>
</svg>
