<svg width="305" height="104" viewBox="0 0 305 104" fill="none" xmlns="http://www.w3.org/2000/svg">
<path fill-rule="evenodd" clip-rule="evenodd" d="M0.983917 22.35H21.56C38.4466 22.35 46.89 30.7933 46.89 47.68V55.67C46.89 72.5567 38.4466 81 21.56 81H0.820801C3.974 94.1921 15.8415 104 29.9998 104H275C291.568 104 305 90.5685 305 74V30C305 13.4315 291.568 0 275 0H29.9998C16.075 0 4.36612 9.48697 0.983917 22.35ZM22.41 67.655H14.42V35.695H22.41C28.87 35.695 32.1 38.9533 32.1 45.47V57.88C32.1 64.3967 28.87 67.655 22.41 67.655ZM46.9225 22.35V66.04C46.9225 76.0133 51.9092 81 61.8825 81H79.2225C86.8419 81 91.5507 78.0895 93.3491 72.2685V75.9L99.9791 81H120.549C128.519 81 133.305 77.8155 134.905 71.4465C136.506 77.8155 141.292 81 149.262 81H158.867L165.327 93.75H178.162L179.862 90.775L174.422 80.15C180.315 78.45 183.262 73.7467 183.262 66.04V37.31C183.262 27.3367 178.275 22.35 168.302 22.35H149.262C139.289 22.35 134.302 27.3367 134.302 37.31V53.7532C132.719 49.8878 129.58 47.4667 124.884 46.49L109.159 43.43C108.479 43.26 108.139 42.8067 108.139 42.07V36.63C108.139 36.0067 108.451 35.695 109.074 35.695H133.809V27.45L127.179 22.35H108.309C100.69 22.35 95.9809 25.2605 94.1825 31.0815V22.35H79.3925V66.72C79.3925 67.3433 79.0808 67.655 78.4575 67.655H62.6475C62.0242 67.655 61.7125 67.3433 61.7125 66.72V22.35H46.9225ZM94.1825 48.17V66.04C94.1825 66.5937 94.1671 67.132 94.1364 67.655H119.784C120.407 67.655 120.719 67.3433 120.719 66.72V60.94C120.719 60.1467 120.379 59.6933 119.699 59.58L103.974 56.35C98.8746 55.3709 95.6107 52.6442 94.1825 48.17ZM150.027 67.655C149.404 67.655 149.092 67.3433 149.092 66.72V36.63C149.092 36.0067 149.404 35.695 150.027 35.695H167.537C168.16 35.695 168.472 36.0067 168.472 36.63V66.72C168.472 67.3433 168.16 67.655 167.537 67.655H150.027ZM184.615 22.35V81H199.405V61.79L203.825 57.2L219.635 81H233.235L234.595 78.11L213.345 46.49L232.385 25.24L231.025 22.35H217.085L199.405 42.07V22.35H184.615ZM239.215 58.9C242.615 60.8267 246.383 61.79 250.52 61.79C253.523 61.79 256.3 61.2233 258.85 60.09C261.457 58.9567 263.752 57.3983 265.735 55.415C267.718 53.4317 269.277 51.1083 270.41 48.445C271.543 45.7817 272.11 42.92 272.11 39.86C272.11 36.8 271.543 33.9667 270.41 31.36C269.277 28.6967 267.718 26.3733 265.735 24.39C263.752 22.35 261.457 20.7633 258.85 19.63C256.243 18.4967 253.467 17.93 250.52 17.93C247.403 17.93 244.485 18.4967 241.765 19.63C239.102 20.7633 236.75 22.3217 234.71 24.305C232.67 26.2883 231.055 28.6117 229.865 31.275C228.732 33.9383 228.165 36.8 228.165 39.86C228.165 43.94 229.157 47.6517 231.14 50.995C233.123 54.2817 235.815 56.9167 239.215 58.9ZM258.595 54.14C256.158 55.6133 253.467 56.35 250.52 56.35C247.403 56.35 244.542 55.6417 241.935 54.225C239.385 52.7517 237.345 50.7683 235.815 48.275C234.285 45.7817 233.52 42.9767 233.52 39.86C233.52 36.8 234.285 34.0233 235.815 31.53C237.345 29.0367 239.385 27.0533 241.935 25.58C244.542 24.05 247.403 23.285 250.52 23.285C253.467 23.285 256.158 24.05 258.595 25.58C261.032 27.0533 262.987 29.0367 264.46 31.53C265.933 34.0233 266.67 36.8 266.67 39.86C266.67 42.92 265.933 45.6967 264.46 48.19C262.987 50.6833 261.032 52.6667 258.595 54.14ZM250.303 42.835L253.41 49.805H261.655L256.797 41.5465C257.065 41.3706 257.325 41.1768 257.575 40.965C259.105 39.7183 259.87 38.1033 259.87 36.12C259.87 34.1367 259.162 32.55 257.745 31.36C256.328 30.1133 254.487 29.49 252.22 29.49H241.425V49.805H249.075V42.835H250.303ZM249.075 38.33H250.52C251.03 38.33 251.455 38.1883 251.795 37.905C252.192 37.6217 252.39 37.225 252.39 36.715C252.39 36.205 252.22 35.8367 251.88 35.61C251.597 35.3267 251.2 35.185 250.69 35.185H249.075V38.33Z" fill="#EBF1FF" fill-opacity="0.9" style="mix-blend-mode:luminosity"/>
</svg>
