<svg width="1555" height="919" viewBox="0 0 1555 919" fill="none" xmlns="http://www.w3.org/2000/svg">
<path style="mix-blend-mode:luminosity" fill-rule="evenodd" clip-rule="evenodd" d="M0 197V889C0 905.569 13.4314 919 30 919H759.608C767.741 919 775.525 915.698 781.178 909.851L816.656 873.149C822.308 867.302 830.092 864 838.225 864H1121H1123.57H1196L1144.79 812.787L1121 789L430.293 98.293C430.131 98.1312 430.131 97.8689 430.293 97.7072C430.554 97.4462 430.369 97 430 97H70H30H0V127V197ZM1525 919H1273.33C1265.37 919 1257.74 915.839 1252.11 910.213L830 488.101V286.919L834.435 273.435L849.439 268.5H955.5V264.5H846.398L834.435 260.565L830 247.081V97.0171C830.337 97.0057 830.675 97 831.014 97H1001.6C1010.44 97 1018.82 93.1068 1024.52 86.3584L1088.48 10.6416C1094.18 3.89321 1102.56 0 1111.4 0H1525C1541.57 0 1555 13.4315 1555 30V107.775C1555 115.908 1551.7 123.692 1545.85 129.344L1504.15 169.656C1498.3 175.308 1495 183.092 1495 191.225V430.5C1495 445.196 1505.57 457.423 1519.52 460H1555V490.5V560V889C1555 905.569 1541.57 919 1525 919ZM826 247.081V97.4219C820.125 98.4177 814.639 101.149 810.279 105.32L646.874 261.603C645.912 262.523 645.025 263.491 644.212 264.5H809.602L821.565 260.565L826 247.081ZM806.561 268.5H641.495C635.021 279.923 636.624 294.724 646.396 304.496L826 484.101V286.919L821.565 273.435L806.561 268.5ZM592.187 199.813L586 181L579.813 199.813L561 206L579.813 212.187L586 231L592.187 212.187L611 206L592.187 199.813ZM616 224L618.475 231.525L626 234L618.475 236.475L616 244L613.525 236.475L606 234L613.525 231.525L616 224Z" fill="#EBF1FF" fill-opacity="0.9"/>
</svg>
